<?xml version="1.0" encoding="UTF-8"?>
<svg id="brown_x5F_mascot" xmlns="http://www.w3.org/2000/svg" version="1.1" viewBox="0 0 595.28 841.89">
  <!-- Generator: Adobe Illustrator 29.2.1, SVG Export Plug-In . SVG Version: 2.1.0 Build 116)  -->
  <defs>
    <style>
      .st0 {
        fill: #93411f;
      }
    </style>
  </defs>
  <g id="layer3">
    <path class="st0" d="M274.69,323.08c-17.68,0-32.75,2.13-41.71,11.83-14.08,15.24-13.64,49.53-12.98,84.87,0,.07.04.14.09.19h0c.05.06.1.14.13.21,12.39,26.09,24.68,51.92,42.25,69.15,12.78,12.53,28.29,20.44,44.35,20.44,5.99,0,12.07-1.1,18.13-3.48,22.41-8.79,44.76-35.11,55.85-69.25,11.13-34.23,10.8-75.78-3.34-95.18-10.66-14.63-29.39-16.93-51-17.48-3.32-.09-6.69-.13-10.1-.17h-.01s-.01,0-.01,0h0c-3.45-.05-6.97-.09-10.47-.18h0c-4.04-.1-8.07-.26-12.08-.42h0s0,0,0,0c-6.52-.26-12.94-.52-19.09-.52Z"/>
    <path class="st0" d="M375.79,185.72c-31.17,0-56.43,25.27-56.43,56.43s25.27,56.43,56.43,56.43,56.43-25.27,56.43-56.43-25.27-56.43-56.43-56.43Z"/>
    <path class="st0" d="M421.09,301.68c-3.65,0-6.68,3.1-6.68,7.02s3.04,7.02,6.68,7.02,6.68-3.1,6.68-7.02-3.04-7.02-6.68-7.02Z"/>
    <path class="st0" d="M244.29,161.17c5,0,8.97,4.21,8.97,9.3s-3.97,9.3-8.97,9.3-8.97-4.21-8.97-9.3,3.97-9.3,8.97-9.3ZM294.79,167.11c7.81,0,14.14,6.33,14.14,14.14s-6.33,14.14-14.14,14.14-14.14-6.33-14.14-14.14,6.33-14.14,14.14-14.14ZM464.92,226.08c9.43,0,17.07,7.64,17.07,17.07s-7.64,17.07-17.07,17.07-17.07-7.64-17.07-17.07,7.64-17.07,17.07-17.07ZM258.26,213.78c14.81,0,26.82,12.01,26.82,26.82s-12.01,26.82-26.82,26.82-26.82-12.01-26.82-26.82,12.01-26.82,26.82-26.82ZM181.38,234.13c14.22,0,25.74,11.52,25.74,25.74s-11.52,25.74-25.74,25.74-25.74-11.52-25.74-25.74,11.52-25.74,25.74-25.74ZM375.79,183.44c32.43,0,58.72,26.29,58.72,58.72s-26.29,58.72-58.72,58.72-58.72-26.29-58.72-58.72,26.29-58.72,58.72-58.72ZM455.96,286c5,0,8.97,4.21,8.97,9.3s-3.97,9.3-8.97,9.3-8.97-4.21-8.97-9.3,3.97-9.3,8.97-9.3ZM285.08,309.93l.16.08-.08.08s-.03-.09-.09-.15h0ZM421.09,299.4c5,0,8.97,4.21,8.97,9.3s-3.97,9.3-8.97,9.3-8.97-4.21-8.97-9.3,3.97-9.3,8.97-9.3ZM481.05,313.49c5,0,8.97,4.21,8.97,9.3s-3.97,9.3-8.97,9.3-8.97-4.21-8.97-9.3,3.97-9.3,8.97-9.3ZM107.08,265.32c.18,0,.36.04.52.13l2.48,1.28h0s.05.03.08.04l2.37,1.47s.05.03.07.05l2.25,1.65s.05.04.07.06l2.11,1.83h0s.04.04.07.06h0s1.96,1.99,1.96,1.99h0s0,0,0,0h0s.04.04.06.06h0s1.8,2.13,1.8,2.13h0s.04.05.06.07l1.63,2.27s.03.05.05.07h0l1.45,2.39h0s.03.05.04.08h0s1.26,2.49,1.26,2.49h0s0,0,0,0c.01.02.02.05.03.07h0s1.06,2.58,1.06,2.58h0s0,0,0,0c0,.02.02.05.03.08l.85,2.66h0s0,0,0,0c0,.03.02.06.02.08h0s.64,2.72.64,2.72h0s0,0,0,0h0s.01.06.02.09l.43,2.76h0s0,0,0,0c0,.03,0,.06,0,.09h0s.21,2.79.21,2.79h0s0,0,0,0h0s0,.06,0,.09v2.79s0,0,0,0c0,.03,0,.06,0,.09h0s-.22,2.78-.22,2.78h0s0,.06-.01.09h0s-.44,2.76-.44,2.76h0s-.01.06-.02.09h0s-.66,2.72-.66,2.72c0,.03-.01.06-.02.09l-.86,2.65s-.02.06-.03.08h0s-1.07,2.58-1.07,2.58c-.01.03-.02.06-.04.08l-1.27,2.48h0s-.03.05-.04.08h0s-1.46,2.38-1.46,2.38h0s-.03.05-.05.07h0l-1.64,2.26h0s-.04.05-.06.07l-1.81,2.12h0s-.04.04-.06.07l-1.97,1.97s-.04.04-.07.06h0l-2.12,1.82h0s-.05.04-.07.06h0s-2.25,1.64-2.25,1.64h0s-.05.03-.07.05h0s-2.37,1.46-2.37,1.46h0s-.05.03-.08.04l-2.48,1.27h0s-.05.03-.08.04h0l-2.57,1.08h0s-.06.02-.08.03l-2.65.87h0s-.06.02-.09.02h0l-2.71.66s-.06.01-.09.02h0l-2.75.45h0s-.06,0-.09.01h0s-2.78.23-2.78.23h0s-.06,0-.09,0h0l-2.79.02h0s-.05,0-.08,0h0l-2.78-.2h0c-.63-.05-1.1-.59-1.06-1.22.04-.6.54-1.06,1.14-1.06.03,0,.05,0,.08,0h0l2.73.2s.01,0,.02,0c0,0,.02,0,.02,0h0l2.66-.02s.03,0,.04,0h0l2.65-.22s.02,0,.03,0h0l2.63-.43s.02,0,.03,0h0l2.6-.64h.02s2.54-.84,2.54-.84h.02s2.47-1.04,2.47-1.04c0,0,.01,0,.02,0h0l2.38-1.22s.01,0,.02-.01h0l2.28-1.41h.02s2.16-1.59,2.16-1.59c0,0,.01,0,.02-.01h0l2.03-1.74s.01,0,.02-.01h0l1.89-1.9s0,0,.01-.02h0l1.74-2.04v-.02s1.59-2.17,1.59-2.17c0,0,0-.01.01-.02h0l1.4-2.28s0-.01,0-.02h0l1.22-2.39v-.02s1.03-2.48,1.03-2.48v-.02s.84-2.55.84-2.55v-.02s.64-2.61.64-2.61v-.02s.43-2.65.43-2.65v-.02s.22-2.68.22-2.68v-.02s0-2.68,0-2.68v-.02s-.2-2.68-.2-2.68v-.02s-.41-2.65-.41-2.65v-.02s-.62-2.61-.62-2.61v-.02s-.83-2.56-.83-2.56v-.02s-1.02-2.48-1.02-2.48v-.02s-1.22-2.4-1.22-2.4v-.02s-1.4-2.29-1.4-2.29v-.02s-1.58-2.18-1.58-2.18v-.02s-1.75-2.05-1.75-2.05h0s0-.01-.01-.02l-1.89-1.91h0s0,0-.02-.01l-2.03-1.75h0s-.01,0-.02-.01l-2.16-1.59h-.02s-2.28-1.43-2.28-1.43h0s-.01,0-.02-.01l-2.43-1.26c-.56-.29-.78-.98-.49-1.54.2-.39.6-.62,1.02-.62ZM473.59,349.65c12.93,0,23.37,10.75,23.37,23.94s-10.43,23.94-23.37,23.94-23.37-10.75-23.37-23.94,10.43-23.94,23.37-23.94ZM154.96,362.36c10.27,0,18.59,8.32,18.59,18.59s-8.32,18.59-18.59,18.59-18.59-8.32-18.59-18.59,8.32-18.59,18.59-18.59ZM435.12,405.74c4.53,0,8.21,3.67,8.21,8.21s-3.67,8.21-8.21,8.21-8.21-3.67-8.21-8.21,3.67-8.21,8.21-8.21ZM187.18,404.37c6.25,0,11.32,5.07,11.32,11.32s-5.07,11.32-11.32,11.32-11.32-5.07-11.32-11.32,5.07-11.32,11.32-11.32ZM481,441.1c4.23,0,7.65,3.43,7.65,7.65s-3.43,7.65-7.65,7.65-7.65-3.43-7.65-7.65,3.43-7.65,7.65-7.65ZM169.33,436.7c6.76,0,12.24,5.48,12.24,12.24s-5.48,12.24-12.24,12.24-12.24-5.48-12.24-12.24,5.48-12.24,12.24-12.24ZM441.2,440.6c7.57,0,13.7,6.13,13.7,13.7s-6.13,13.7-13.7,13.7-13.7-6.13-13.7-13.7,6.13-13.7,13.7-13.7ZM403.02,478.37c6.7,0,12.13,5.43,12.13,12.13s-5.43,12.13-12.13,12.13-12.13-5.43-12.13-12.13,5.43-12.13,12.13-12.13ZM203.83,462.63c11.3,0,20.47,9.16,20.47,20.47s-9.16,20.47-20.47,20.47-20.47-9.16-20.47-20.47,9.16-20.47,20.47-20.47ZM159.77,478.54c7.95,0,14.39,6.44,14.39,14.39s-6.44,14.39-14.39,14.39-14.39-6.44-14.39-14.39,6.44-14.39,14.39-14.39ZM296.59,135.57c-17.46,0-35.22,2.11-52.63,6.99-45.81,12.85-89.32,44.92-118.28,85.72-28.95,40.78-43.34,90.24-39.84,139.02,3.5,48.8,24.92,96.94,53.99,129.19,29.06,32.23,65.8,48.63,102.8,65.13h0s.05.02.08.04c.04.02.08.03.12.03s.09-.01.12-.03c.06-.04.1-.09.12-.16h0c6.02-27.01,11.6-53.37,5.04-72.21h0s0,0,0,0h0s0-.02,0-.02h0s0,0,0,0h0s0,0,0,0c-3.01-8.63-8.6-15.73-14.92-23.75,0,0-.03-.03-.03-.04l-.03-.04c-7.7-9.77-16.37-20.78-22.11-37.22-8.2-23.49-10.52-58.51,3.14-83.41.04-.07.04-.15,0-.22s-.09-.12-.17-.14h0s-.1,0-.1,0c-.07.01-.14.02-.21.02-.06,0-.13,0-.19-.02l-.67-.11h0s-.06-.01-.09-.02l-.66-.17h0s-.06-.02-.09-.03h0l-.64-.22h0s-.06-.02-.09-.04l-.62-.28h0s-.06-.03-.09-.04h0s-.6-.33-.6-.33h0s-.06-.03-.08-.05h0l-.57-.38s-.05-.04-.08-.06l-.53-.42s-.05-.04-.07-.06l-.5-.47h0s-.05-.04-.07-.07h0s-.46-.51-.46-.51c-.02-.02-.04-.05-.06-.07l-.41-.54h0s-.04-.05-.05-.08l-.36-.58s-.03-.06-.05-.08h0s-.31-.61-.31-.61h0s-.03-.06-.04-.09h0s-.26-.63-.26-.63h0s-.02-.06-.03-.09h0s-.21-.65-.21-.65h0s-.02-.06-.03-.09h0s-.15-.67-.15-.67h0s-.01-.06-.02-.09h0s-.1-.68-.1-.68c0-.03,0-.06,0-.1h0s-.04-.68-.04-.68h0s0,0,0,0h0s0-.06,0-.09l.02-.68h0s0-.06,0-.1l.08-.68h0s0-.06.01-.09h0s.13-.67.13-.67c0-.03.01-.06.02-.09l.19-.66h0s.02-.06.03-.09h0l.24-.64h0s.02-.06.04-.09h0s.3-.61.3-.61h0s.03-.06.05-.08h0s.35-.59.35-.59h0s0,0,0,0h0s.03-.06.05-.08h0s.4-.56.4-.56h0s.04-.05.06-.08h0s.45-.54.45-.54h0s.04-.05.07-.07h0s.5-.49.5-.49c.02-.02.05-.05.07-.07h0s.54-.45.54-.45h0s.05-.04.08-.06l.58-.4s.06-.04.08-.05l.61-.35h0s.06-.03.09-.05h0s.64-.29.64-.29c.03-.01.06-.03.09-.04h0s.66-.24.66-.24h0s0,0,0,0h0s.06-.02.09-.03l.68-.18h0s.06-.02.1-.02h0s.69-.12.69-.12h0s.07,0,.1-.01h0l.7-.06s.07,0,.1,0h.71s0,0,0,0c.03,0,.07,0,.1,0l.7.06s.07,0,.1.01h0s.69.12.69.12h0s.06.01.1.02l.68.18h0s0,0,0,0h0s.06.02.09.03h0s.66.24.66.24h0s.06.02.09.04l.64.3s.06.03.09.05h0l.61.35h0s.06.03.08.05h0s.58.4.58.4h0s.05.04.08.06l.54.45h0s.05.04.07.07h0s.5.5.5.5h0s.05.05.07.07h0l.45.54h0s.04.05.06.08h0s.4.58.4.58c.02.03.04.05.05.08h0s.35.61.35.61c.02.03.03.06.05.09h0l.3.64h0s0,0,0,0h0s.03.06.04.09l.03.08c.04.1.13.16.23.16.01,0,.03,0,.04,0,.05,0,.1-.03.13-.07h0c1.5-1.52,3.1-2.96,4.8-4.31,6.38-5.07,14.19-8.86,22.84-11.62h0c.1-.02.17-.1.19-.2s-.03-.2-.11-.25c-.33-.21-.55-.57-.54-.99l.02-1.29h0s0-.06,0-.09h0s.12-1.29.12-1.29h0s0,0,0,0h0s0-.06.01-.09h0s.22-1.27.22-1.27h0s0,0,0,0h0s.01-.06.02-.08h0s.32-1.25.32-1.25c0-.03.02-.06.03-.09h0s.42-1.22.42-1.22c0-.03.02-.06.03-.08h0s.52-1.18.52-1.18h0s.03-.06.04-.08h0s.61-1.14.61-1.14h0s0,0,0,0h0s.03-.05.04-.07h0s.7-1.09.7-1.09c.02-.03.03-.05.05-.07h0s.78-1.03.78-1.03h0s.04-.05.06-.07h0s.86-.96.86-.96h0s.04-.04.06-.07h0l.94-.89h0s.05-.04.07-.06l1-.81h0s.05-.04.07-.05l1.06-.73h0s.05-.03.08-.05l1.12-.65h0s.05-.03.08-.04h0s1.17-.56,1.17-.56h0s0,0,0,0h0s.05-.02.08-.03h0l1.21-.46h0s.06-.02.09-.03h0s1.24-.36,1.24-.36h0s.06-.02.09-.02h0l1.26-.27h0s.06-.01.09-.02l1.29-.16h0s.06,0,.09,0h0l1.3-.06h0s.04,0,.06,0c.01,0,.02,0,.04,0h0l1.3.04h0s.06,0,.09,0h0l1.29.14h0s.06,0,.09.01h0s1.27.25,1.27.25h0s.06.01.09.02h0l1.25.35h0s.06.02.09.03h0s1.22.45,1.22.45c.03.01.05.02.08.03h0s1.18.54,1.18.54h0s.05.03.08.04l1.13.63h0s.05.03.08.05h0s1.08.72,1.08.72h0s.05.03.07.05h0l1.02.8h0s.05.04.07.06h0l.95.88s.04.04.06.06h0s.88.96.88.96c.02.02.04.04.06.07l.8,1.02h0s.04.05.05.07h0l.71,1.08h0s.03.05.05.08h0s.63,1.14.63,1.14h0s.03.05.04.08l.53,1.18h0s.02.05.03.08h0s.44,1.22.44,1.22c.11.3.08.61-.05.88h0s0,0,0,0h0s0,0,0,0c-.01.03-.02.07-.02.1h0s.01.1.04.14c.04.05.09.09.16.1h0s.03,0,.05,0c0,0,.01,0,.02,0h0c4.05-.24,8.11-.36,12.14-.36,18.35,0,36.31,2.35,49.98,5.6,32.91,7.82,41.1,20.9,49.17,33.89h0c.09.14.14.29.16.45h0s.07.5.07.5c.02.12.12.21.24.21,0,0,.01,0,.02,0,.13,0,.23-.12.23-.25h0s0,0,0,0c.09-.46.47-.84.96-.91l2.17-.31h0s.06,0,.09,0h0l2.19-.13h0s.04,0,.07,0c0,0,.02,0,.03,0l2.19.05s.06,0,.1,0h0l2.18.24h0s.06,0,.09.01h0l2.15.42h0s0,0,0,0c.03,0,.06.01.09.02h0s2.11.59,2.11.59c.03,0,.06.02.09.03h0s2.05.77,2.05.77h0s.06.02.09.04h0s1.98.94,1.98.94h0s.06.03.08.04h0l1.89,1.1h0s0,0,0,0c.03.02.05.03.08.05h0s1.8,1.25,1.8,1.25h0s.05.04.08.06h0l1.69,1.4h0s.05.04.07.06l1.56,1.53s.04.05.07.07h0s1.43,1.66,1.43,1.66c.02.02.04.05.06.07h0s1.29,1.77,1.29,1.77h0s.04.05.05.08h0l1.14,1.87h0s0,0,0,0c.02.03.03.05.04.08h0s.98,1.96.98,1.96h0s.03.06.04.09l.81,2.03h0s0,0,0,0c.01.03.02.06.03.09h0l.64,2.09h0s.02.06.02.09h0s.46,2.14.46,2.14h0s.01.06.02.09h0s.28,2.17.28,2.17h0s0,.06,0,.09h0s.1,2.19.1,2.19h0s0,.06,0,.1l-.08,2.17h0s0,.06,0,.09h0s-.26,2.16-.26,2.16h0s0,.06-.02.09h0s-.44,2.13-.44,2.13h0s0,0,0,0c0,.03-.01.06-.02.09h0s-.62,2.09-.62,2.09h0s-.02.06-.03.09h0s-.79,2.03-.79,2.03h0s0,0,0,0c-.01.03-.02.06-.04.08l-.95,1.96h0s-.03.06-.04.08h0s-1.11,1.87-1.11,1.87h0s-.03.05-.05.08l-1.26,1.77h0s-.04.05-.06.07h0s-1.4,1.66-1.4,1.66h0s-.04.05-.06.07l-1.54,1.54h0s-.05.04-.07.06h0s-1.66,1.41-1.66,1.41h0s-.05.04-.07.06h0s-1.77,1.26-1.77,1.26c-.03.02-.05.04-.08.05l-1.87,1.11h0s0,0,0,0h0s-.06.03-.08.04h0s-1.95.96-1.95.96h0s-.06.03-.09.04h0s-2.03.79-2.03.79c-.03.01-.06.02-.09.03h0s-2.09.62-2.09.62h0s-.06.02-.09.02h0s-2.13.45-2.13.45h0s-.06.01-.09.02h0l-2.16.27h-.01s0,0,0,0c-.03,0-.06,0-.08,0h0l-2.17.09h0s-.03,0-.05,0-.03,0-.05,0h0s-2.17-.09-2.17-.09h0s-.06,0-.09,0h0s-.61-.08-.61-.08h0s0,0,0,0h0s0,0,0,0c-.01,0-.03,0-.04,0-.05,0-.11.02-.15.05-.05.04-.09.11-.09.17-.66,7.99-2.08,15.97-4.6,23.93h0s0,0,0,0c-.37,1.17-.77,2.35-1.18,3.52-.03.08-.02.16.03.22s.12.1.2.1h0l.39.02h0s.07,0,.1,0h0l1.53.22s.06.01.1.02l1.5.35h0s0,0,0,0c.03,0,.06.02.09.03h0l1.47.48h0s.06.02.09.03h0s1.42.61,1.42.61h0s.06.03.09.04l1.37.72s.06.03.08.05l1.3.84s.06.04.08.06l1.22.95s.05.04.07.06h0s1.14,1.05,1.14,1.05h0s.05.05.07.07h0s1.04,1.14,1.04,1.14c.02.02.04.05.06.08h0l.94,1.23h0s.04.05.06.08h0s.83,1.3.83,1.3h0s.03.06.05.08l.72,1.37h0s.03.06.04.09h0s.6,1.43.6,1.43h0s.02.06.03.09h0s.47,1.47.47,1.47h0s.02.06.03.09h0s.35,1.51.35,1.51c0,.03.01.06.02.1h0s.22,1.53.22,1.53c0,.03,0,.06,0,.1h0s.08,1.54.08,1.54h0s0,.06,0,.1l-.05,1.54h0s0,.07,0,.1l-.18,1.53h0s0,.06-.02.1h0s-.31,1.51-.31,1.51h0s-.01.06-.02.09h0s-.44,1.48-.44,1.48c-.01.03-.02.06-.03.09h0s-.56,1.44-.56,1.44c-.01.03-.02.06-.04.09h0s-.67,1.36-.67,1.36h0s-.03.06-.05.08l-.79,1.3s-.03.05-.05.08h0s-.89,1.23-.89,1.23c-.02.03-.04.05-.06.08h0s-.99,1.15-.99,1.15h0s-.04.05-.07.07h0s-1.09,1.06-1.09,1.06h0s-.05.04-.07.06h0s-1.17.97-1.17.97c-.03.02-.05.04-.08.06h0l-1.25.87h0s-.05.04-.08.05l-1.32.76h0s-.06.03-.09.04h0s-1.38.64-1.38.64h0s-.06.03-.09.04l-1.43.53h0s-.06.02-.09.03h0s-1.47.4-1.47.4h0s-.06.02-.09.02l-1.5.28h0s-.06.01-.1.01h0s-1.51.15-1.51.15h0s-.06,0-.1,0l-1.52.02h0s0,0-.02,0c-.03,0-.05,0-.08,0h0l-1.52-.11h0s-.06,0-.09-.01h0l-1.5-.23s-.06-.01-.09-.02l-1.48-.36h0s-.06-.02-.09-.03h0s-1.44-.48-1.44-.48h0s-.06-.02-.09-.03h0s-1.4-.6-1.4-.6c-.03-.01-.06-.03-.09-.04h0s-1.34-.72-1.34-.72h0s-.06-.03-.08-.05l-1.28-.83h0s-.05-.04-.08-.06l-1.2-.93h0s-.05-.04-.07-.06l-1.12-1.03s-.05-.04-.07-.07h0s-.22-.24-.22-.24c-.04-.04-.09-.07-.14-.08h0s-.03,0-.04,0c-.09,0-.17.05-.22.13l-.19.36-.27.5c-6.8,12.64-13.24,24.63-16.02,35.66-5.27,20.94,2.65,38.59,11.08,56.57.04.09.13.14.22.14.02,0,.04,0,.05,0,.02,0,.03,0,.05-.02h0c34.63-15.01,68.91-30.17,96.39-65.96,27.86-36.28,48.77-93.8,48.26-145.24-.5-51.39-22.37-96.79-47.94-129.74-25.54-32.91-54.71-53.31-93.4-66.71-24-8.31-51.65-13.91-80.1-13.91Z"/>
    <path class="st0" d="M154.96,364.65c-9,0-16.3,7.3-16.3,16.3s7.3,16.3,16.3,16.3,16.3-7.3,16.3-16.3-7.3-16.3-16.3-16.3Z"/>
    <path class="st0" d="M181.38,236.41c-12.95,0-23.46,10.5-23.46,23.46s10.5,23.46,23.46,23.46,23.46-10.5,23.46-23.46-10.5-23.46-23.46-23.46Z"/>
    <path class="st0" d="M258.26,216.06c-13.55,0-24.54,10.99-24.54,24.54s10.99,24.54,24.54,24.54,24.54-10.99,24.54-24.54-10.99-24.54-24.54-24.54Z"/>
    <path class="st0" d="M294.79,169.4c-6.55,0-11.85,5.31-11.85,11.85s5.31,11.85,11.85,11.85,11.85-5.31,11.85-11.85-5.31-11.85-11.85-11.85Z"/>
    <path class="st0" d="M268.16,299.05h-.02s-1.19.06-1.19.06h-.02s-1.18.15-1.18.15h-.02s-1.16.25-1.16.25h-.02s-1.13.34-1.13.34h-.02s-1.1.43-1.1.43h-.02s-1.07.52-1.07.52h-.02s-1.02.6-1.02.6h0s0,0,0,0c0,0,0,0-.01,0l-.97.67h-.02s-.92.76-.92.76h-.01s-.86.83-.86.83h-.01s-.79.9-.79.9v.02s-.73.94-.73.94v.02s-.65.99-.65.99v.02s-.57,1.04-.57,1.04v.02s-.48,1.08-.48,1.08v.02s-.39,1.12-.39,1.12v.02s-.3,1.14-.3,1.14v.02s-.21,1.16-.21,1.16v.02s-.12,1.18-.12,1.18v.02s-.02,1.24-.02,1.24h0c0,.16-.04.31-.1.45-.03.08-.03.16.02.23.03.05.09.09.14.1h0s.01,0,.02,0c.02,0,.03,0,.05,0,.03,0,.05,0,.07-.01h0c9.17-2.72,19.19-4.31,29.37-5.06h.03s0,0,0,0c.08-.02.15-.07.18-.15s.02-.16-.02-.23c-.05-.07-.09-.16-.12-.24l-.42-1.17v-.02s-.5-1.08-.5-1.08v-.02s-.58-1.04-.58-1.04v-.02s-.66-.99-.66-.99v-.02s-.74-.94-.74-.94h-.01s-.8-.89-.8-.89h-.01s-.87-.82-.87-.82h-.01s-.93-.75-.93-.75h-.02s-.99-.67-.99-.67h-.02s-1.04-.59-1.04-.59h-.02s-1.08-.5-1.08-.5h-.02s-1.12-.42-1.12-.42h-.02s-1.14-.32-1.14-.32h0s-.01,0-.02,0l-1.13-.22h0s-.03,0-.05-.01l-1.15-.13h0s-.03,0-.05,0l-1.19-.04Z"/>
    <path class="st0" d="M214.4,328.34h-.02s-.56.05-.56.05h0s-.03,0-.04,0l-.56.1h0s-.02,0-.03,0l-.56.15h-.02s-.55.2-.55.2h-.02s-.53.25-.53.25h-.02s-.51.3-.51.3h-.02s-.48.34-.48.34h-.02s-.45.39-.45.39h-.02s-.41.42-.41.42v.02s-.39.44-.39.44v.02s-.34.46-.34.46v.02s-.3.49-.3.49v.02s-.26.51-.26.51v.02s-.21.53-.21.53v.02s-.16.54-.16.54v.02s-.12.55-.12.55v.02s-.07.56-.07.56v.02s-.02.57-.02.57v.02s.03.56.03.56v.02s.08.56.08.56v.02s.13.55.13.55v.02s.18.54.18.54v.02s.22.52.22.52v.02s.27.5.27.5v.02s.31.48.31.48v.02s.35.45.35.45c.01.02.03.03.05.05h0l.35.39h.01s.41.4.41.4h.02s.44.36.44.36h.02s.47.33.47.33h.02s.5.28.5.28c.02,0,.03.02.05.02h0l.49.22h.02s.53.19.53.19h.02s.55.15.55.15c.02,0,.03,0,.05,0h0l.59.1h0c.42.07.75.36.89.74.04.1.13.16.23.16.01,0,.03,0,.04,0,.07-.01.13-.06.17-.12h0c1.87-3.15,4.01-6.13,6.45-8.88h0s.08-.08.1-.14c.02-.09,0-.19-.08-.25-.15-.12-.27-.29-.34-.48l-.22-.6v-.02s-.26-.53-.26-.53v-.02s-.3-.5-.3-.5v-.02s-.35-.48-.35-.48v-.02s-.39-.45-.39-.45v-.02s-.43-.41-.43-.41h-.02s-.45-.39-.45-.39h-.02s-.48-.35-.48-.35h-.02s-.5-.3-.5-.3h-.02s-.53-.26-.53-.26h-.02s-.55-.21-.55-.21h-.02s-.56-.16-.56-.16h-.02s-.54-.1-.54-.1h0s-.03,0-.05,0l-.55-.05h0s-.03,0-.05,0h-.58Z"/>
    <path class="st0" d="M187.18,406.65c-4.99,0-9.03,4.04-9.03,9.03s4.04,9.03,9.03,9.03,9.03-4.04,9.03-9.03-4.04-9.03-9.03-9.03Z"/>
    <path class="st0" d="M203.83,464.91c-10.04,0-18.18,8.14-18.18,18.18s8.14,18.18,18.18,18.18,18.18-8.14,18.18-18.18-8.14-18.18-18.18-18.18Z"/>
    <path class="st0" d="M159.77,480.83c-6.69,0-12.11,5.42-12.11,12.11s5.42,12.11,12.11,12.11,12.11-5.42,12.11-12.11-5.42-12.11-12.11-12.11Z"/>
    <path class="st0" d="M169.33,438.98c-5.5,0-9.96,4.46-9.96,9.96s4.46,9.96,9.96,9.96,9.96-4.46,9.96-9.96-4.46-9.96-9.96-9.96Z"/>
    <path class="st0" d="M393.22,433.71c-.1,0-.19.06-.23.16-3.56,9.3-8.36,18.52-13.15,27.45-.04.08-.04.17,0,.24.02.03.05.06.08.08h0l.8.87h.01s1.03.97,1.03.97h.02s1.11.87,1.11.87h.02s1.18.78,1.18.78c.02.01.04.02.06.03h0l1.21.65h.02s1.29.57,1.29.57h.02s1.33.45,1.33.45h.02s1.37.34,1.37.34h.02s1.39.22,1.39.22c.01,0,.03,0,.04,0h0l1.38.1s.01,0,.02,0c0,0,.02,0,.02,0h0l1.39-.02s.02,0,.03,0h0l1.39-.14s.02,0,.03,0h0l1.38-.26h.02s1.35-.38,1.35-.38h.02s1.32-.49,1.32-.49c0,0,.01,0,.02,0h0l1.27-.59h.02s1.22-.71,1.22-.71h.02s1.16-.81,1.16-.81h.02s1.08-.91,1.08-.91h.02s1-1,1-1v-.02s.93-1.06.93-1.06v-.02s.84-1.14.84-1.14v-.02s.74-1.2.74-1.2v-.02s.63-1.26.63-1.26v-.02s.53-1.33.53-1.33l.02-.09v.07s.4-1.37.4-1.37v-.02s.29-1.4.29-1.4v-.02s.17-1.42.17-1.42v-.02s.05-1.43.05-1.43v-.02s-.08-1.42-.08-1.42v-.02s-.2-1.41-.2-1.41v-.02s-.32-1.39-.32-1.39v-.02s-.44-1.36-.44-1.36v-.02s-.56-1.31-.56-1.31v-.02s-.67-1.26-.67-1.26v-.02s-.78-1.2-.78-1.2v-.02s-.88-1.13-.88-1.13v-.02s-.98-1.05-.98-1.05h-.01s-1.05-.98-1.05-.98h-.02s-1.13-.89-1.13-.89h-.02s-1.2-.79-1.2-.79h-.02s-1.26-.68-1.26-.68h-.02s-1.31-.57-1.31-.57h-.02s-1.36-.45-1.36-.45h-.02s-1.39-.33-1.39-.33h-.02s-1.38-.2-1.38-.2h0s-.03,0-.05,0l-1.18-.07h-.01s0,0,0,0Z"/>
    <path class="st0" d="M396.96,350.79c-.07,0-.14.03-.19.08s-.07.12-.06.19c2.17,16.54,4.28,33.21,3.26,49.86,0,.07.02.13.07.18s.11.08.18.08h0l.69.09s.02,0,.03,0c0,0,0,0,0,0h0l2.03.09s0,0,.01,0c0,0,.02,0,.03,0h0l2.05-.08s.02,0,.03,0h0l2.04-.25s.02,0,.02,0h0l2.02-.42s.02,0,.02,0h0l1.97-.59h.02s1.92-.76,1.92-.76h.02s1.85-.91,1.85-.91h.02s1.77-1.06,1.77-1.06h.02s1.68-1.21,1.68-1.21h.02s1.57-1.35,1.57-1.35h.01s1.46-1.47,1.46-1.47v-.02s1.34-1.57,1.34-1.57v-.02s1.21-1.68,1.21-1.68v-.02s1.06-1.77,1.06-1.77v-.02s.91-1.85.91-1.85v-.02s.75-1.92.75-1.92v-.02s.59-1.98.59-1.98v-.02s.42-2.02.42-2.02v-.02s.25-2.05.25-2.05v-.02s.08-2.06.08-2.06v-.02s-.09-2.07-.09-2.07v-.02s-.27-2.06-.27-2.06v-.02s-.44-2.03-.44-2.03v-.02s-.61-1.98-.61-1.98v-.02s-.77-1.93-.77-1.93v-.02s-.93-1.86-.93-1.86h0s0-.01-.01-.02l-1.08-1.77v-.02s-1.23-1.68-1.23-1.68v-.02s-1.37-1.57-1.37-1.57h-.01s-1.48-1.47-1.48-1.47h-.02s-1.6-1.34-1.6-1.34h-.02s-1.7-1.2-1.7-1.2h-.02s-1.79-1.05-1.79-1.05h-.02s-1.87-.9-1.87-.9h-.02s-1.94-.73-1.94-.73h-.02s-2-.57-2-.57h-.02s-2.04-.4-2.04-.4h-.02s-2.03-.22-2.03-.22h0s-.03,0-.05,0l-2.04-.05h0s-.02,0-.03,0c0,0,0,0-.01,0l-2.05.12s0,0,0,0c-.01,0-.02,0-.03,0l-2.11.3h0c-.06,0-.11.01-.16.01-.45,0-.85-.26-1.03-.66-.04-.09-.13-.14-.22-.14h0Z"/>
    <path class="st0" d="M473.59,351.93c-11.62,0-21.08,9.67-21.08,21.66s9.47,21.66,21.08,21.66,21.08-9.67,21.08-21.66-9.47-21.66-21.08-21.66Z"/>
    <path class="st0" d="M464.92,228.37c-8.17,0-14.78,6.62-14.78,14.78s6.62,14.78,14.78,14.78,14.78-6.62,14.78-14.78-6.62-14.78-14.78-14.78Z"/>
    <path class="st0" d="M260.68,507.54c-.07,0-.13.03-.18.08s-.07.11-.07.18c1.22,24.96,1.59,50.67-12.28,70.29-14.69,20.78-45.11,34.25-74.41,47.21l-.57.25s-.04.02-.06.03h0c-35.18,20.18-62.06,36.7-56.64,46.16.8,1.39,2.49,3,5.72,4.63h0c23.98,12.11,109.2,15.71,196.74,19.18,0,0,0,0,0,0,.04,0,.08-.01.12-.03h0c.33-.18.7-.3,1.1-.34,80.38-9.08,159.09-18.06,180.4-31.2,6.2-3.82,6.26-7.08,3.98-10.77h0c-6.06-9.82-28.57-21.48-52.79-33.85h0s-.05-.03-.07-.04l-.52-.2h0s-.52-.2-.52-.2c-32.13-12.3-65.15-25.01-82.78-44.46-16.79-18.52-19.43-42.83-21.08-66.45,0-.11-.09-.21-.2-.23h0s-.03,0-.04,0c-.04,0-.09.01-.13.04-11.5,6.9-23.63,13.52-36.61,14.71h-.02c-1.35.12-2.72.19-4.09.19h0s-.05,0-.08,0c0,0-.01,0-.02,0-14.6-.03-29.99-7.4-44.78-15.12l-.11-.03h0Z"/>
    <path class="st0" d="M441.2,442.88c-6.31,0-11.42,5.11-11.42,11.42s5.11,11.42,11.42,11.42,11.42-5.11,11.42-11.42-5.11-11.42-11.42-11.42Z"/>
    <path class="st0" d="M403.02,480.66c-5.44,0-9.85,4.41-9.85,9.85s4.41,9.85,9.85,9.85,9.85-4.41,9.85-9.85-4.41-9.85-9.85-9.85Z"/>
    <path class="st0" d="M435.12,408.16c-3.2,0-5.79,2.59-5.79,5.79s2.59,5.79,5.79,5.79,5.79-2.59,5.79-5.79-2.59-5.79-5.79-5.79Z"/>
    <path class="st0" d="M481.05,315.66c-3.72,0-6.8,3.15-6.8,7.13s3.09,7.13,6.8,7.13,6.8-3.15,6.8-7.13-3.09-7.13-6.8-7.13Z"/>
    <path class="st0" d="M455.96,288.42c-3.57,0-6.55,3.03-6.55,6.89s2.98,6.89,6.55,6.89,6.55-3.03,6.55-6.89-2.98-6.89-6.55-6.89Z"/>
    <path class="st0" d="M481,443.51c-2.89,0-5.24,2.34-5.24,5.24s2.34,5.24,5.24,5.24,5.24-2.34,5.24-5.24-2.34-5.24-5.24-5.24Z"/>
    <path class="st0" d="M244.29,163.53c-3.61,0-6.61,3.06-6.61,6.95s3.01,6.95,6.61,6.95,6.61-3.06,6.61-6.95-3.01-6.95-6.61-6.95Z"/>
  </g>
</svg>