<?xml version="1.0" encoding="UTF-8"?>
<svg id="pink_x5F_mascot" xmlns="http://www.w3.org/2000/svg" version="1.1" viewBox="0 0 595.28 841.89">
  <!-- Generator: Adobe Illustrator 29.2.1, SVG Export Plug-In . SVG Version: 2.1.0 Build 116)  -->
  <defs>
    <style>
      .st0 {
        fill: #eb98c1;
      }
    </style>
  </defs>
  <g id="layer2">
    <path class="st0" d="M335.91,493.17c-.07,0-.14.03-.2.07-15.78,13.62-32.12,27.13-49.54,28.1h-.03s-.1,0-.1,0h0s0,0-.02,0h0c-.63.03-1.26.05-1.9.05-16.66,0-33.96-10.99-50.79-22.22-.05-.03-.11-.05-.17-.05h-.01c-.08,0-.16.03-.22.1s-.09.14-.08.23c2.01,31.09,3.22,62.69-19.22,85.9-15.02,15.53-40.57,27.18-65.57,38.58l-.29.13h0l-.25.11h0c-13.49,6.15-26.83,12.24-38.49,18.88-26.07,14.84-41.42,31.02-35.09,42.15,2.08,3.66,6.63,7.17,14.61,10.1,32.23,11.86,115.29,12.79,199.9,13.49h0s.03,0,.04,0h0c58.16-6.01,116.08-12.03,160.91-23.41,44.84-11.38,73.73-27.41,70.21-41.74h0v-.08c-.1-.36-.21-.7-.34-1.06h-.01v-.08c-5.84-15.68-49.04-31.98-83.09-40.12-8.36-2-16.04-3.48-23.16-4.85h0-.03s-.03-.01-.03-.01h0c-5.99-1.15-11.57-2.23-16.74-3.46h-.01s-.03-.01-.05-.01c-13.22-3.16-23.97-7.42-32.25-17-14.65-16.93-21.32-50.29-27.66-83.49h0c0-.17-.14-.31-.31-.31h-.01Z"/>
    <path class="st0" d="M371.47,446.1c-.09,0-.18.04-.24.12-8.88,11.43-17.41,22.85-20,37.64-2.7,15.42,1.05,34.6,7.14,50.54,6.1,15.98,14.39,28.32,27.86,30.75,1.75.32,3.6.47,5.52.47.1,0,.1,0,.2,0,12.88-.07,28.58-6.86,38.58-15.08,10.85-8.91,14.97-19.47,18.77-30.29.03-.09.02-.19-.03-.27-.05-.08-.14-.13-.23-.14h-.01s-.12.01-.12.01c-13,4.27-26.01,8.4-36.67,8.46-.07,0-.15,0-.23,0-.48,0-.96,0-1.43-.03-11.37-.41-19.72-5.91-27.86-11.35-.04-.03-.09-.05-.15-.05h-.01s-.11.01-.11.01c-5.14,1.53-10.38,3.08-13.41,3.1-.02,0-.03,0-.05,0-1.25,0-2.62-.27-3.01-1.48-.93-2.9,5.11-9.28,12.72-11.73.61-.2,1.23-.37,1.87-.52,2.56-.59,5.31-.76,8.06-.78.14,0,.28,0,.42,0,1.57,0,3.17.05,4.71.09h0s0,0,0,0h0c1.52.04,3,.09,4.43.09.14,0,.23,0,.37,0,3.26-.02,6.15-.29,8.41-1.26,5.71-2.44,7.83-9.5,9.72-17.39.02-.09,0-.18-.05-.25-.05-.07-.13-.12-.22-.12h-.01s-.1,0-.1,0c-3.72.92-7.49,1.72-11.15,1.74-.05,0-.09,0-.14,0-4.48,0-8.85-1.18-12.89-4.73-7.65-6.73-14.08-22.03-20.38-37.36-.05-.11-.16-.19-.28-.19h-.01Z"/>
    <path class="st0" d="M196.58,457.75c-.14,0-.26.09-.3.23-4.21,16.03-8.56,32.04-15.25,39.73-3.57,4.1-7.79,5.84-12.29,6.42-1.31.17-2.64.24-3.99.24-2.41,0-4.86-.22-7.3-.49h-.03s-.01,0-.01,0c-.1,0-.19.05-.25.13s-.07.19-.03.28c2.92,7.57,5.96,14.29,11.94,15.95,1.2.33,2.52.47,3.95.47s2.94-.13,4.55-.34c1.54-.2,3.12-.46,4.75-.72h.01s.01,0,.01,0h0c1.66-.27,3.36-.55,5.06-.77,1.88-.24,3.77-.41,5.62-.41.83,0,1.66.03,2.47.11.65.06,1.29.15,1.92.26,7.87,1.42,14.7,6.94,14.16,9.94h0c-.23,1.28-1.58,1.71-2.83,1.88-.51.07-1.1.1-1.75.1-3.12,0-7.58-.69-11.95-1.38h-.02s-.01,0-.01,0c0,0-.02,0-.03,0-.07,0-.15.03-.2.08-7.34,6.48-14.9,13.04-26.11,14.95-.54.09-1.08.17-1.64.24-2.13.27-4.37.39-6.72.39-9.28,0-20.02-1.91-30.75-3.91h-.06s-.01,0-.01,0c-.11,0-.2.06-.26.15s-.06.2-.01.3c5.19,10.22,10.69,20.15,22.62,27.54,9.51,5.89,23.09,10.16,34.83,10.16,1.85,0,3.66-.11,5.41-.33,1.98-.25,3.86-.66,5.61-1.22,13.03-4.19,19.62-17.52,23.54-34.17,3.92-16.61,5.09-36.12.37-51.04-4.52-14.29-14.46-24.47-24.76-34.6h-.01c-.05-.09-.15-.14-.26-.14h-.01Z"/>
    <path class="st0" d="M280.01,331.91h0s0,0,0,0h0ZM339.01,307.02l-.07.02c-18.07,11.16-36.22,22.32-58.93,24.87h0,0s0,0,0,0c-1.53.17-3.09.3-4.66.4-2.17.13-4.38.2-6.62.2-20.19,0-43.06-5.11-65.89-10.22h-.02s-.01,0-.01,0l-.11.05-9.44,11.08-.03.08-.64,12.19h0s-.01.09-.03.13h0s-6.05,12.05-6.05,12.05c-.02.04-.02.09,0,.13h0l.08.45h0c4.58,25.28,9.13,50.51,8.41,60.27-.23,3.09-1.02,4.97-2.49,5.06-.03,0-.07,0-.1,0-2.71,0-6.65-6.56-10.07-17-2.16-6.58-4.16-14.85-6.11-22.94h0s0-.01,0-.01h0c-1.88-7.78-3.72-15.38-5.62-21.18-.9-2.74-1.81-5.06-2.73-6.8-1.64-3.08-3.27-4.24-4.68-4.24-.05,0-.1,0-.15,0h0c-2.85.17-5.49,5.2-6.02,12.15-.78,10.38,3.29,24.27,8.75,34.55,5.45,10.26,12.27,16.9,19.12,23.57.02.02.04.05.06.08h0c11.24,20.82,22.46,41.58,39.41,58.02,16.97,16.45,39.66,28.54,58.41,28.68.12,0,.21,0,.32,0,.91,0,1.8-.03,2.69-.08,17.34-1.06,31.43-12.22,45.62-23.46h0c.05-.04.11-.06.17-.07h0s.01,0,.01,0l.09-.05c9.18-11.28,18.31-22.52,23.93-34.79,2.41-5.25,4.18-10.7,5.91-16.03h0s0-.02,0-.02v-.02s0,0,0,0c1.64-5.04,3.24-9.97,5.31-14.49h0s0,0,0,0c.88-1.92,1.85-3.77,2.94-5.52,2.06-3.32,4.57-6.29,7.14-9.34h0v-.02s.01,0,.01,0c2.75-3.26,5.57-6.61,8.05-10.6h0c2.37-3.81,4.42-8.19,5.78-13.62,4.16-16.64,1.76-42.48-2.27-44.49h-.03s0-.01,0-.01h0c-.15-.07-.29-.1-.44-.1-.02,0-.04,0-.06,0-3.95.24-9.82,20.33-14.32,38.13-1.13,4.49-2.19,8.85-3.13,12.74,0,0,0,.02,0,.02h0s-.13.53-.13.53c-.74,3.05-1.39,5.75-2.01,8.18-1.36,5.39-2.46,9.22-3.32,9.79h0c-.08.05-.19.1-.3.11h0s-.02,0-.03,0c-.16,0-.3-.07-.4-.17h-.01v-.02c-.1-.09-.17-.21-.22-.34h-.01s.01,0,.01,0c0-.02-.01-.03-.02-.05-1.26-3.06-.69-24.04-.11-44.98h0s.01-.47.01-.47h.01s0-.02,0-.03l-9.79-41.28-.05-.08-15.08-10.98-.08-.02h-.01Z"/>
    <path class="st0" d="M299.9,265.92l.02.03h0l-.02-.03ZM367.72,149.15c-.05,0-.1,0-.16.01-.04,0-.08.01-.12.02h0c-.67.14-1.51.74-2.53,1.82-2.65,2.8-6.12,8.41-10.33,15.22h0s-.07.11-.07.11h0c-6.3,10.19-14.2,22.96-23.32,32.6-17.61,18.63-39.73,25.56-61.78,32.4-.06.02-.1.08-.09.14h.01c0,.19-.16.35-.35.35h-.03s-.03,0-.03,0c-2.1.03-4.21.06-6.32.06-13.39,0-27.01-1.18-41.78-11.01-16.87-11.22-35.23-33.71-53.56-56.27l-.09-.05h-.01s0,0-.01,0c-.06,0-.12.05-.13.11-2.01,12.8-3.88,25.52-1.23,37.75.93,4.27,2.4,8.49,3.75,12.32h0c.12.35.07.19.19.54h0c.07.19.12.35.19.54h0c2.37,6.77,4.27,12.6.49,14.4-.37.18-.79.31-1.24.41-.62.13-1.34.19-2.15.19-7.69,0-23.07-5.69-38.4-11.42h-.05s0,0,0,0c-.04,0-.08.02-.11.05s-.03.08-.02.12h0s0,0,0,0c4.43,12.82,8.98,25.55,18.72,36.79,10,11.54,25.46,21.51,41.37,22.82,1.26.1,2.52.15,3.79.15,3.94,0,7.91-.48,11.91-1.32,10.96-2.3,22.08-7.26,33.24-12.24.05-.02.1-.03.14-.03.07,0,.13.02.19.05h0c7.35,4.61,14.62,9.17,24.8,9.17,1.56,0,3.19-.11,4.9-.34,1.13-.15,2.3-.36,3.48-.61,6.2-1.3,12.96-3.75,18.33-5.7h.03s0,0,0,0c0,0,.05-.02.08-.03h0c3.45-1.25,6.34-2.3,8.09-2.66.4-.08.79-.14,1.13-.14.28,0,.52.04.7.14h.02s-.01,0-.01,0c.08.04.15.1.21.18h0l-.02-.06.02.07c.05.07.09.14.11.22h0s0,.03.01.04h-.01l-.33.03c-.07,0-.13.07-.12.14,0,.07.06.12.13.12,0,0,0,0,0,0l.33-.02h.01c-.3,2.8-14.84,13.93-27.13,17.7-1.14.35-2.27.64-3.38.87-2.62.55-5.16.79-7.63.79-8.55,0-16.37-2.85-24.12-5.69h-.03s-.01,0-.01,0h-.06c-8.76,3.91-17.55,7.81-26.68,9.72-3.66.77-7.38,1.22-11.17,1.22-1.59,0-3.2-.08-4.81-.25-14.46-1.5-30.03-10.07-45.57-18.91l-.06-.02h-.01s-.1.03-.12.07-.02.1.01.14c9.67,12.45,19.07,24.72,18.82,28.64h0c-.06.92-.61,1.45-1.47,1.63-.22.05-.48.07-.76.07-3.45,0-10.69-3.43-18.06-7.04h-.06s-.01-.01-.01-.01c-.05,0-.1.03-.12.07-.02.05-.01.1.02.14h0s0,0,0,0c7.47,9.09,14.67,18.01,14.93,21.32.08,1.02-.45,1.61-1.36,1.8-.23.05-.49.07-.78.07-2.59,0-7.31-1.84-12.02-3.72h-.05s-.01,0-.01,0c-.04,0-.08.02-.11.06s-.03.08-.02.12c2.06,5.68,4.16,11.22,7.43,15.3.62.77,1.27,1.48,2,2.27,3.36,3.65,7.8,8.5,14.19,25.2,3.77,9.85,8.22,23.83,11.94,35.52v.02s0,0,0,0c3.1,9.73,5.64,17.68,6.86,20.53.02.05.07.08.12.08,0,0,.02,0,.03,0,.06-.01.1-.07.1-.13h0s0-.01,0-.01h0c-.02-.24-.04-.5-.07-.79h0c-.39-3.8-1.8-11.87-3.4-20.96h0s0-.03,0-.03h0c-2.04-11.65-4.38-25.01-5.21-33.1-.99-9.65.09-12.21,2.1-12.63.23-.05.46-.06.69-.06.33,0,.65.03.94.07h0s.04,0,.04,0h0c.32.03.61.06.87.06.17,0,.33-.01.49-.04h0s0,0,0,0h0c.14-.03.27-.08.39-.14h0c2.16-1.21,2.3-9.18,2.4-17.69h0c0-.05.01-.11.04-.15h0s8.95-18.06,8.95-18.06h0c.05-.09.13-.16.23-.18h0s.06-.01.09-.01c.07,0,.14.02.2.06h0s.05.03.05.03h0c7.71,5.14,15.39,10.25,28.15,12.58,6.79,1.24,15.03,1.69,23.48,1.69,7.5,0,15.19-.36,22.21-.84,8.29-.57,15.62-1.31,22.37-2.73,5.4-1.13,10.42-2.69,15.25-4.94,10.88-5.05,20.84-13.58,30.85-22.16h0l.03-.02c.06-.06.15-.09.23-.09.01,0,.03,0,.04,0,.1.01.19.06.24.14h0s15.42,20.6,15.42,20.6c0,0,.01.02.02.03h0c3.78,6.2,7.56,12.42,8.59,30.17.54,9.22.34,21.58.18,31.28-.11,6.5-.18,11.68-.05,14.06,0,.06.05.12.12.12,0,0,0,0,.01,0,.06,0,.11-.04.13-.1.4-1.51.94-4.11,1.64-7.51h0s0-.02,0-.02h0c2.11-10.21,5.62-27.15,10.9-40.45,4.58-11.55,10.5-20.36,14.53-26.36h0,0s0,0,0,0c3.23-4.8,4.99-7.52,4.49-8.58-.19-.41-.88-.66-2.18-.66-.04,0-.06,0-.1,0-1.62.02-3.79.39-5.97.77-.03,0,0,0-.04,0-.03,0-.04,0-.04,0h0s-.02,0-.04,0c-2.04.35-4.08.7-5.58.72h0s-.07,0-.09,0c-1.24,0-2.49-.25-2.51-1.41h0c0-.13.01-.26.04-.38v-.04s0,0,0,0h0c.46-2,4.25-5.97,7.89-9.77l.21-.22c3.75-3.91,7.26-7.61,7.6-9.24v-.03s0,0,0,0h0c.01-.08.02-.14.02-.2h0c0-.5-.65-.77-2.31-.77-.09,0-.16,0-.26,0-.66.01-1.4.05-2.17.1h0,0s0,0,0,0h0c-.82.05-1.69.1-2.52.12-.12,0-.26,0-.38,0-2.53,0-5.15-.43-5.19-3h0c0-.07,0-.13,0-.2.11-3.02,3.71-8.74,7.08-14.1h0s.12-.19.12-.19h0c3.19-5.07,6.12-9.76,6.2-11.89h0c0-.17,0-.31-.03-.43h0c-.13-.6-.7-.92-1.71-.92-.47,0-1.05.07-1.74.21-3.9.82-9.6,3.74-11.02,4.53h0c-.2.11-.31.18-.34.19h0s-.02.02-.03.03h-.02s-.04.02-.06.02h-.1s-.32-.3-.32-.3h-.01c-.02-.15.09-.29.18-.36h.01c.26-.14,7.68-4.69,15.57-15.87,9.11-12.91,18.66-34.39,17.51-39.38h0c-.16-.69-.54-1.05-1.25-1.05-.2,0-.42.03-.67.08-.82.17-1.86.63-3.07,1.3-2.18,1.2-4.84,3.04-7.7,5.02h0s-.01,0-.01,0h-.01c-3.25,2.26-6.75,4.69-10.04,6.5-4.05,2.23-7.77,3.53-11.29,4.27-3.46.73-6.72.91-9.91.91-1.58,0-3.15-.05-4.71-.09h-.02s-.09.03-.09.03c-11.54,9.28-23.16,18.6-33.94,22.11-1.28.42-2.54.75-3.8,1.01-2.68.56-5.32.8-7.92.8-6.41,0-12.59-1.42-18.73-2.86h-.02s-.01,0-.01,0l-.11.05c-4.85,6.07-9.84,12.21-18.62,14.05-.74.16-1.51.28-2.31.37-.31.04-.61.07-.93.09-.89.07-1.81.11-2.77.11-9.79,0-21.99-3.57-22.2-6.04-.08-1.03,1.47-1.57,3.19-1.93,4.99-1.05,15.58-1.35,26.14-1.64h0s.01,0,.01,0l.09-.04,14.62-16.38h0c.07-.08.16-.12.26-.12.03,0,.05,0,.08,0h0s.03,0,.03,0h0c8.28,1.9,16.5,3.78,24.39,3.78,2.84,0,5.64-.24,8.39-.82,1.51-.32,3.01-.73,4.48-1.27,11.55-4.17,21.98-15.42,32.47-26.8h-.01c.05-.02.09-.06.09-.12,1.02-19.78,2.02-39.47.72-49.71h0v-.02c-.61-4.77-1.66-6.96-3-6.96Z"/>
    <path class="st0" d="M261.2,132.46c-.09,0-.16.06-.18.14-4.02,17.02-8.1,33.98-13.71,48.44h0c-1.53,3.93-3.16,7.66-4.69,11.16h0s0,0,0,0c-1.35,3.08-2.61,5.96-3.64,8.62-2.27,5.84-3.37,10.48-1.97,13.67,2.77,6.31,15.49,7.29,28.69,8.21,0,0,0,0,.01,0,.05,0,.09-.02.13-.05.04-.03.06-.08.06-.13h0s0-.06,0-.06c0-.02-.01-.05-.01-.07h0c0-.16.11-.3.26-.32h0s0,0,0,0c14.3-1.81,28.1-3.61,29.75-11.39,1.26-5.91-4.4-15.37-10.75-25.93-2.07-3.45-4.2-6.98-6.16-10.54-7.63-13.83-12.65-27.71-17.56-41.58h-.01c0-.1-.08-.18-.18-.18h-.01Z"/>
  </g>
</svg>