<?xml version="1.0" encoding="UTF-8"?>
<svg id="red_x5F_mascot" xmlns="http://www.w3.org/2000/svg" version="1.1" viewBox="0 0 595.28 841.89">
  <!-- Generator: Adobe Illustrator 29.2.1, SVG Export Plug-In . SVG Version: 2.1.0 Build 116)  -->
  <defs>
    <style>
      .st0 {
        fill: #ed2224;
      }
    </style>
  </defs>
  <g id="layer5">
    <path class="st0" d="M349.88,236.62l-.07.02c-14.98,8.39-30.15,16.82-45.32,18.15h-.01c-1.55.13-3.11.2-4.65.2-6.8,0-13.54-1.17-19.95-2.27h-.04s0,0,0,0c-5.98-1.03-11.65-2.01-16.94-2.01h0c-.51,0-1.01,0-1.51.03h0c-12.57.48-22.9,7.19-33.43,14.06h0c-.06.04-.12.07-.18.09l-34.56,11c-.07.02-.12.1-.1.18h0v.21c1.34,27.6,2.65,55.18,1.1,73.17-1,11.57-3.24,20.39-8.15,20.39-2.52,0-5.26-2.38-8.3-6.86-9.1-13.38-22.76-48.43-24.5-60.84-.46-3.26-.23-5.92,1.77-6.2h0c.09-.01.18-.02.27-.02,0,0,0,0,.02,0h0s.01,0,.02,0h.01c3.52.05,10.31,9.34,15.75,21,4.4,9.44,8.14,20.91,10.76,28.94h0s0,.02,0,.02c.91,2.81,1.68,5.15,2.29,6.87.02.06.08.1.14.1,0,0,.02,0,.03,0,.07-.01.13-.08.13-.15h0s0,0,0,0c-.17-2.93-.62-7.71-1.19-13.54v-.02s0-.02,0-.02h0c-.96-9.95-2.18-22.47-2.43-32.5-.47-18.7,2.41-28.69,5.36-38.41h-.01s.04-.05.04-.08c.01-.06-.01-.13-.07-.17l-25.97-15.19s-.05-.02-.08-.02c-.02,0-.05,0-.07.02-.05.02-.08.07-.08.12l-3.75,35.97h0c-.02.19-.11.36-.25.49h0c-6.41,5.57-12.55,10.91-11.48,22.67,1.08,11.96,9.58,30.5,18.2,49.25.02.04.05.07.09.08h-.01l16.33,15.33c.05.05.1.11.14.18h0l19.7,34.61s.03.04.04.05h-.01c13.3,20.65,26.51,41.1,47.57,53.21,10.89,6.26,23.88,10.29,37.64,10.29,12.88,0,26.45-3.53,39.64-12.08,27.36-17.74,53.06-57.11,60.96-77.23,5.24-13.36,2.44-17.64-2.19-19.46h0s0,0,0,0c0,0,0,0,0,0-2.54-1-5.76-1.31-9.12-1.62-.21-.02-.39-.12-.52-.29-.13-.16-.18-.37-.15-.58l.09-.56c2.73-17.43,5.45-34.82,7.08-51.77,1.64-17.16,2.14-33.67-3.08-46.02-5.14-12.16-15.86-20.41-26.86-28.73l-.09-.03h-.01Z"/>
    <path class="st0" d="M372.52,431.07l-.38.87.42-.64h.01c-.01-.08-.03-.15-.04-.23h-.01Z"/>
    <path class="st0" d="M369.93,439.19l-.03.05c-.13.23-.22.4-.29.53,0,0,.02,0,.04,0,.03,0,.05.02.08.02h.01c.07-.2.14-.41.2-.61h-.01Z"/>
    <path class="st0" d="M200.38,417.89c-.06.01-.11.07-.1.13.8,10.64,1.27,21.42-2.44,32.04-3.75,10.72-11.75,21.23-19.95,31.61-.03.04-.03.1,0,.14.02.04.07.06.11.06h-.01s.01,0,.02,0c.01,0,.02,0,.03,0h0c19.56-7.61,37.9-15.15,41.5-25.67,3.53-10.32-7.11-23.92-19-38.23h0c-.02-.05-.08-.09-.14-.07h-.01Z"/>
    <path class="st0" d="M384.39,186.92s-.08.02-.1.05l-28.47,38.24s-.03.09,0,.13c.02.03.05.05.08.06h-.01c13.16,12.81,26.39,25.84,31.92,42.74,5.6,17.14,3.25,38.16,1.29,53.4-1.9,14.79-3.47,24.37-5.02,33.74,0,.04,0,.07.03.1s.06.04.09.04h0l2.48.36s.01,0,.02,0c.03,0,.06-.01.08-.03.03-.02.04-.06.04-.09h0s0,0,0,0c2.52-12.75,5.03-25.44,6.83-36.12h0s0-.02,0-.02c.64-3.81,1.2-7.39,1.7-10.66h0s.01-.09.02-.14h0c.42-2.72.83-5.34,1.21-7.61h0c.46-2.72.91-5.13,1.4-7.16,1.41-5.87,3.12-8.65,4.81-11.38h0l.02-.02c.14-.23.4-.37.66-.37.05,0,.1,0,.16.02l7.08,1.47c.21.04.38.17.5.34h0c.11.18.15.39.1.59-5.25,22.98-10.48,45.88-12.29,58.54-1.48,10.36-.66,13.69.51,15.78.02.04.06.06.11.06.01,0,.02,0,.03,0,.03,0,.06-.03.07-.05h0c7.42-11.17,14.62-22.3,17.36-36.67,2.83-14.86.9-33.17-1.72-39.87-1.12-2.88-2.27-3.42-3.26-3.42-.23,0-.44.03-.63.06-.19.03-.38.06-.58.1h0s0,0,0,0h0c-.18.03-.37.07-.55.1h0c-.18.03-.38.05-.59.05-.59,0-1.24-.17-1.72-.88-1.42-2.1-.84-9.99-.17-17.81,0-.03,0-.06-.03-.09s-.05-.04-.08-.04h-.01s-.08.02-.08.02l-7.42,5.77h-.01s0,.01,0,.01c-.14.1-.3.15-.47.15-.06,0-.11,0-.17-.02h0c-.23-.05-.42-.2-.52-.41l-3.56-7.11h0c-.16-.33-.08-.73.21-.96h0s11.67-9.44,11.67-9.44l.04-.08,3.08-26.84h0s-.03-.09-.03-.09l-8.35-10.78h0s-.03-.03-.05-.04c-.02,0-.03-.01-.05-.01-.03,0-.06.01-.08.03l-19.12,17.71c-.15.13-.34.21-.53.21-.06,0-.12,0-.17-.02-.25-.06-.46-.24-.55-.47l-2.72-6.91c-.12-.31-.03-.67.22-.88h0s17.88-14.99,17.88-14.99l.04-.09h0s-.02-.07-.02-.07l-12.45-18.17s-.06-.05-.1-.05h0Z"/>
    <path class="st0" d="M317.55,212.19c-1.02,0-2.06.07-3.11.21-.09.01-.16.02-.25.04h0c-5.09.76-10.51,3.27-16.33,5.97-.05.02-.01,0-.06.03l-.06.03c-6.33,2.94-13.1,6.08-20.19,7.13-1.52.23-3.06.36-4.61.37h0c-.08,0-.15,0-.23,0-7.43,0-15.12-2.68-22.33-5.2l-.08-.03c-6.69-2.34-12.93-4.5-18.38-4.5-.05,0-.11,0-.15,0-.84,0-1.66.06-2.45.18-.03,0-.09.01-.12.02h0c-6.19.97-11.24,5.6-16.34,10.32l-.12.11s-.12.11-.12.11c-4.31,3.98-8.7,8-13.74,9.21-.42.1-.84.18-1.27.24h0c-.81.12-1.62.17-2.45.17-5.06,0-10.35-2.06-14.73-3.75,0,0-.01,0-.02,0h0s-.03,0-.1-.04h0c-3.44-1.34-6.16-2.37-7.97-2.37-.2,0-.4.01-.58.04h0c-.29.04-.53.12-.72.23-1.83.99-1.89,5.99,1.36,11.98,2.14,3.94,5.55,7.87,10.07,10.34,4.73,2.59,10.75,3.62,17.22,3.62,3.64,0,7.43-.33,11.22-.89,5.18-.77,10.32-1.97,15-3.35,4.63-1.36,8.83-2.88,12.81-4.33h.01s.01,0,.01,0h0c3.55-1.29,6.95-2.53,10.31-3.51,2.55-.75,5.09-1.35,7.68-1.74h0c1.86-.28,3.74-.44,5.68-.45.12,0,.23,0,.35,0,6.66,0,13.85,1.67,20.67,3.26h0s.06.02.06.02h0s.1.02.1.02c5.53,1.29,10.8,2.51,15.47,2.8.76.05,1.52.07,2.26.07,1.74,0,3.4-.13,4.99-.37,6.89-1.02,12.53-4.03,18.28-7.13h-.01l.06-.02h0s0,0,0,0c7.87-5.13,14.73-9.78,13.39-15.79-1.27-5.69-9.89-13.01-20.46-13.01Z"/>
    <path class="st0" d="M328.4,172.67c-1.07,0-2.18.08-3.3.25-2.15.32-4.43.96-6.84,1.97-3.24,1.36-6.71,3.38-10.47,5.57h-.02s-.02.03-.02.03h0c-4.24,2.47-8.82,5.14-13.69,7.18-3.4,1.43-6.97,2.56-10.69,3.11-1.28.19-2.58.31-3.9.35,0,0,0,0-.01,0,0,0,0,0,0,0-.35.01-.69.02-1.04.02-8,0-16.55-2.8-24.7-5.47l-.09-.03c-7.35-2.41-14.37-4.7-20.6-4.95-.39-.02-.78-.02-1.17-.02-1.44,0-2.84.11-4.21.31-9.65,1.43-17.4,7.54-24.29,12.99-.83.66-1.61,1.28-2.42,1.91-6.43,5-12.11,8.69-18.15,9.59-.94.14-1.88.21-2.83.21-1.13,0-2.27-.1-3.43-.31-8.1-1.45-17.28-8.15-26.29-14.89l-.06-.02h-.01s0,0-.01,0c-.06,0-.11.04-.12.1-1.7,7.76-3.14,15.46-.74,24.66,2.48,9.52,8.51,19.14,11.17,19.14.05,0,.11,0,.16-.01h0c.1-.02.2-.05.3-.11h0c1.25-.82,1.92-4.85,2.61-9.63h0c.06-.44.02-.14.08-.55,0,0,.07-.5.09-.64.55-3.78,1.22-7.81,2.88-8.9h0s0,0,0,0c.03-.02.06-.04.1-.06,0,0,0,0,0,0h0c.23-.13.47-.22.73-.25.1-.01.2-.02.29-.02,1.79,0,3.96,2.25,6.05,4.44h0c.19.2.22.23.4.42,3.16,3.3,6.83,7.09,10.78,8.23h0c.92.27,1.86.39,2.82.39.6,0,1.21-.05,1.82-.14h0c5.79-.86,12.08-5.51,18.1-9.98.75-.55,1.36-1.01,2.09-1.55,6.89-5.06,13.08-9.02,19.87-10.03,1.11-.16,2.23-.25,3.37-.25.15,0,.31,0,.46,0,6.38.13,13.37,2.95,20,5.62h0s.1.04.1.04h0c1.97.79,3.94,1.59,5.84,2.29,5.16,1.92,9.97,3.25,14.8,3.25,1.22,0,2.45-.09,3.68-.27,1.81-.27,3.65-.75,5.52-1.49,2.92-1.15,5.94-2.91,9.16-4.79l.03-.02s.01,0,.02,0c0,0,0,0,.02,0,3.43-2,7.06-4.12,10.88-5.62,2.11-.83,4.3-1.48,6.56-1.81h0c.54-.08,1.09-.14,1.64-.19.61-.05,1.23-.07,1.85-.07,10.27,0,21.64,6.32,32.74,12.5.06.04.1.06.16.09.02.01.04.02.06.02s.04,0,.06-.02c0,0,.02-.01.03-.02h0c5.15-5.2,9.8-10.15,9.54-16.47-.27-6.61-5.91-14.97-12.87-20.41-4.42-3.46-9.28-5.66-14.88-5.66Z"/>
    <path class="st0" d="M327.56,132.62c-.62,0-1.23.02-1.84.06-.67.05-1.34.12-2,.22-6.13.91-12,3.88-18.05,6.94l-.07.03h0s-.07.03-.07.03h0c-6.06,3.07-12.31,6.23-18.99,7.22-.85.13-1.71.22-2.57.27-.59.04-1.18.05-1.78.05-1.2,0-2.4-.07-3.62-.2-6.95-.72-14.22-3.36-21.28-5.91h0l-.06-.02h0c-6.91-2.5-13.61-4.92-19.78-5.57h0s0,0,0,0h0s0,0,0,0c-1.16-.12-2.31-.18-3.43-.18-1.68,0-3.32.13-4.94.37-10.5,1.56-19.72,7.82-29.12,14.22-.02.01-.03.03-.04.05h-.01s-.05.05-.05.05h0c-5.66,4.79-11.56,9.76-18.37,10.77h0c-.83.12-1.66.19-2.52.19-2.7,0-5.54-.65-8.54-2.15-3.94-1.97-8.18-5.42-12.29-8.77h0s-.03-.03-.06-.05h0s0,0,0,0h0c-6.32-5.15-12.13-9.8-16.6-9.8-.3,0-.59.02-.88.06-1.06.16-2.06.63-2.97,1.52-7.52,7.33-9,40.98-5.96,62,2.58,17.86,8.37,25.94,14.63,32.74.02.03.06.04.09.04.01,0,.03,0,.04,0,.05-.02.08-.06.08-.11h0s0-.04,0-.04c-2.82-8.55-5.47-17.56-6.64-29.94-1.22-12.98-1.04-31.75,6.63-32.89h0c.24-.04.48-.05.73-.05.11,0,.22,0,.33.01,3.31.21,7.66,3.59,12.35,7.24l.3.24h0c7.24,5.64,15.65,12.15,24.06,12.15.1,0,.19,0,.29,0,0,0,0,0,0,0h0c.73-.01,1.47-.08,2.21-.19.18-.03.36-.06.54-.09,6.68-1.19,13.46-6,20.51-11.02l.12-.08h0c.06-.04.05-.04.12-.08h0c7.03-5,14.31-10.17,21.75-11.49.21-.04.43-.07.65-.11,1.18-.18,2.36-.26,3.54-.26h.04s.01,0,.06,0c7.17.03,14.38,3.04,21.47,5.99h0s.1.04.1.04c7.3,3.05,14.47,6.03,21.65,6.06.02,0,.07,0,.1,0,1.4,0,2.8-.11,4.21-.32h0c2.38-.35,4.77-.98,7.15-1.81,6.27-2.18,12.43-5.69,18.31-9.04l.06-.03.06-.03h0c5.17-2.95,10.14-5.78,14.68-7.36,1.83-.64,3.6-1.07,5.3-1.32,1.24-.18,2.45-.27,3.61-.27,8.51,0,14.98,4.65,19.66,10.08,5.91,6.86,9.08,15.11,12.09,23.28.02.05.06.08.11.08,0,0,.01,0,.02,0,.02,0,.04-.01.06-.03h0c3.62-2.95,6.95-6.08,8.4-12.6,1.6-7.19.91-18.52-7.31-29.49-7.92-10.58-22.71-20.7-36.18-20.7Z"/>
    <path class="st0" d="M343.1,463.91c-.09,0-.17.03-.24.08-19.04,14.6-38.93,29.08-58.34,30.06,0,0,0,0-.01,0,0,0-.01,0-.02,0-.12,0-.03,0-.11,0h0s-.05,0-.05,0c0,0-.02,0-.03,0h-.02c-.63.03-1.27.04-1.9.04-18.46,0-35.98-11.93-52.58-24.2-.06-.04-.13-.07-.2-.08h-.01s-.02,0-.03,0c-.09,0-.19.03-.26.1-.08.07-.13.17-.13.28-1.86,35.44-4.6,71.46-24.2,94.57-14.43,17.02-37.79,26.78-64.04,37.74l-.58.24h0l-.39.16c-11.29,4.71-23.19,9.69-35.38,15.6h0c-36.7,17.78-69.28,40.77-62.38,55.01.01.03.03.05.04.07h0c1.26,2.54,3.93,5.21,8.81,7.74h0c31.89,16.57,140.37,20.03,250.89,23.36h.07s0,0,0,0h.01c.07-.01.12-.02.19-.03h.03s-.02,0-.02,0c101.11-10.17,201-20.28,236.77-38.53,15.84-8.08,17.6-16.85,13.41-25.06-5.61-10.99-22.49-22.49-43.37-30.96-14.18-5.76-29.87-9.99-45.66-14.24h-.01s-.04-.01-.06-.02l-.13-.04h0s-.3-.08-.3-.08h0c-15.4-4.15-30.9-8.33-44.81-13.98-9.97-4.05-19.22-8.88-27.13-15.07-29.02-22.73-38.71-62.92-47.42-102.47-.04-.18-.2-.31-.38-.31h-.01Z"/>
    <path class="st0" d="M388.09,472.01s.05-.11.02-.16c-6.23-8.67-12.25-17.62-14.62-28.61-2.39-11.1-1.05-24.24.54-37.38,0-.05-.02-.1-.06-.12-.04-.02-.09-.02-.13,0h0s-.01,0-.02,0c0,0-.01.01-.02.02h0c-12.72,16.69-24.45,32.69-22.03,43.54,2.37,10.65,18.54,16.71,36.14,22.72h0s.11.03.16-.01h0Z"/>
  </g>
</svg>