<?xml version="1.0" encoding="UTF-8"?>
<svg id="Layer_1" xmlns="http://www.w3.org/2000/svg" version="1.1" viewBox="0 0 595.28 841.89">
  <!-- Generator: Adobe Illustrator 29.2.1, SVG Export Plug-In . SVG Version: 2.1.0 Build 116)  -->
  <defs>
    <style>
      .st0 {
        fill: #010101;
      }
    </style>
  </defs>
  <g id="swerve">
    <path class="st0" d="M164.55,372.34c-3.68-.1-7.26-.04-10.69.23h0s0,0,0,0c-15.5,1.2-28.36,6.55-38.83,14.69-10.5,8.16-18.54,19.09-20.77,30.26-2.23,11.18,1.35,22.68,7.19,29.66,5.82,6.96,13.93,9.49,22.28,12.08h0c.16.05.3.16.38.29.03.05.09.09.16.09,0,0,.01,0,.02,0h0c10.13.42,20.49.87,28.14,5.54,7.69,4.69,12.75,13.76,9.02,22.29-3.24,7.4-13.16,14.3-20.32,14.11-.92-.02-1.81-.17-2.64-.45h0s-.02,0-.03-.01c-6.91-2.38-8.6-14.15-10.04-25.52,0-.08-.07-.14-.14-.16h0s-.03,0-.04,0c-.04,0-.09.01-.12.04l-42.19,32.51c-.07.05-.09.15-.05.22.03.06.08.09.14.1h0c10.48,4.15,21.09,8.14,36.17,9.05,1.17.07,2.33.12,3.55.15,15.27.41,34.05-2.26,48.18-10.1,15.24-8.46,25.09-22.93,26.38-36.92,1.29-13.99-5.94-27.57-18.37-34.47-6.47-3.59-14.38-5.39-21.91-7.1h0s-.11-.03-.11-.03h0s-.1-.02-.12-.03h0c-6.83-1.55-13.39-3.05-18.04-5.84-9.91-5.95-11.06-17.61-6.46-25.25,3.82-6.34,11.58-9.92,17.5-9.76,1.22.03,2.37.22,3.41.59h0c5.74,2.03,7.29,9.23,8.53,16.17.02.09.09.15.18.15,0,0,.01,0,.02,0,.04,0,.07-.02.1-.04h0s38.94-27.57,38.94-27.57h0s.08-.09.08-.15c0-.09-.07-.17-.16-.18-13.55-2.21-26.99-4.32-39.29-4.65Z"/>
    <path class="st0" d="M191.77,498.19h.03s.12.08.12.08h0l-.15-.08h0ZM204.96,382.32s-.09.01-.12.04l-38.25,28.39c-.06.05-.09.12-.07.2h0s.59,14.05.59,14.05c0,.05.03.1.07.14.02.02.05.03.08.04h0c10.17,4.65,20.39,9.37,27.28,16.88,6.98,7.61,10.53,18.08,9.39,28.1-1.1,9.68-6.59,18.9-12.17,28.03-.03.06-.04.13,0,.18.03.05.07.08.12.09h0s.03,0,.04,0c.01,0,.02,0,.03,0h0s22.24-1.56,22.24-1.56c.08,0,.14-.05.16-.12h0s20.4-53.53,20.4-53.53c.06-.15.21-.25.37-.24,0,0,.02,0,.03,0h.01s0,0,0,0c.17.02.31.15.33.32h0s8.04,52.03,8.04,52.03c.01.09.09.16.18.16,0,0,.01,0,.02,0l32.87-1.85c.08,0,.15-.06.17-.14h0s26.78-98.58,26.78-98.58v-.04s0,0,0,0c0-.05-.02-.1-.06-.14-.03-.03-.08-.05-.13-.05,0,0,0,0-.01,0l-11.9.41s0,0,0,0c-.08,0-.16.05-.19.13l-20.38,67.58c-.05.16-.2.27-.38.27,0,0-.01,0-.02,0h0c-.18-.01-.33-.15-.35-.32l-9.49-63.94h0s-.03-.08-.06-.11c-.03-.03-.08-.05-.13-.05,0,0-.01,0-.02,0l-29.51,1.87h0c-.08,0-.16.05-.18.13l-20.41,65.04c-.05.16-.2.27-.38.26,0,0-.01,0-.02,0h0c-.18-.01-.32-.15-.35-.32v-.04c-3.32-22.13-6.63-44.28-7.28-58.4-.59-12.86,1.02-19.07,2.83-24.66.02-.06,0-.12-.03-.16s-.09-.08-.15-.08h0Z"/>
    <path class="st0" d="M367.28,389.67s-.01,0-.02,0l-59.45,4.31h0c-.09,0-.17.07-.18.15l-16.64,98.48c0,.05,0,.11.04.15h0s.08.06.13.07c0,0,0,0,.01,0,0,0,.02,0,.03,0h0s49.08-3.09,49.08-3.09c.07,0,.13-.05.16-.1h0s5.76-11.43,5.76-11.43l.02-.08h0c0-.05-.02-.1-.06-.14-.03-.03-.08-.05-.12-.05,0,0-.01,0-.02,0l-20.11,1.8h0s-.03,0-.05,0c-.1,0-.2-.04-.27-.12h0c-.08-.08-.12-.2-.1-.31l4.76-34.94c.02-.18.18-.32.36-.32l17.12-.84c.06,0,.12-.04.15-.09l5.81-9.77s.03-.06.03-.1c0-.1-.08-.18-.18-.18-.01,0-.02,0-.04,0h0s-21.46,1.71-21.46,1.71h0s-.03,0-.04,0c-.1,0-.2-.05-.27-.12h0c-.08-.08-.12-.2-.1-.31l5.17-31.91c.03-.18.18-.31.37-.32l22.05-.63c.06,0,.12-.03.15-.08h0s8.09-11.44,8.09-11.44c.04-.06.04-.14,0-.2-.03-.06-.09-.09-.16-.09Z"/>
    <path class="st0" d="M400.68,396.71c4.2.11,7.97,1.2,9.79,5.6,2.55,6.16,1.19,18.81-2.92,25.1-4.15,6.37-11.1,6.25-17.78,6.13h-.12s0,0,0,0c-.11,0-.21-.05-.28-.13-.07-.08-.1-.19-.09-.3l2.73-19.07c.01-.08.05-.15.1-.21h0c.06-.03.1-.08.11-.14l2.36-16.44h0c.03-.17.17-.31.35-.32h.02s.02,0,.02,0h0c1.92-.14,3.87-.27,5.71-.22ZM423.21,385.47h-.02s-50.84,4.53-50.84,4.53h0c-.05,0-.11.03-.14.07l-11.1,14.44-.04.09-9.03,72.9c0,.05-.03.11-.06.15h0s-6.22,9.69-6.22,9.69h0s0,0,0,0h0c-.04.06-.04.13,0,.19.03.05.08.08.13.09h0s.02,0,.03,0c0,0,.02,0,.03,0h0s36.24-1.43,36.24-1.43c.09,0,.17-.07.18-.16h0s6.81-44.04,6.81-44.04h0c.03-.17.16-.3.33-.32h0s.04,0,.06,0c.15,0,.29.09.34.23h0s17.58,42.05,17.58,42.05c.03.07.1.11.17.12,0,0,.02,0,.03,0h0s29.88-2.26,29.88-2.26c.1,0,.17-.08.17-.18h0s-.02-.1-.02-.1l-23.9-41.84c-.06-.11-.07-.24-.01-.35.05-.11.16-.19.28-.21h0c6.03-.97,11.86-1.92,15.31-8.73,3.5-6.9,4.56-19.84,3.11-28.38-1.41-8.33-5.22-12.42-9.12-16.5h0s-.09-.07-.14-.07h0Z"/>
    <path class="st0" d="M495.83,380.69s0,0-.01,0l-12.52.37s0,0,0,0c-.08,0-.15.04-.18.12l-27.53,69.21h0c-.06.15-.21.24-.37.24-.01,0-.02,0-.03,0h0c-.17-.02-.31-.15-.34-.32l-9.99-66.44h0s-.03-.08-.06-.11c-.03-.03-.08-.05-.12-.05,0,0-.02,0-.02,0l-15.3,1.4h0s0,0,0,0h0c-.1.01-.18.1-.17.2,0,.05.03.1.07.13h0c3.68,6.15,7.28,12.42,8.48,20.07,1.26,8.05-.13,17.62-3.6,24.3-3.39,6.52-8.76,10.27-14.09,13.89-.07.05-.1.13-.07.2.01.04.03.07.06.09h0s22.42,37.58,22.42,37.58c.03.06.09.09.16.09,0,0,.02,0,.03,0h0s17.11-.99,17.11-.99c.08,0,.14-.05.17-.12h0s36.12-99.61,36.12-99.61c.02-.06.01-.12-.03-.17-.03-.05-.09-.07-.15-.08Z"/>
    <path class="st0" d="M501.35,380.94c-.08,0-.16.05-.18.12l-36.06,101.1c-.02.06-.01.12.02.17.03.04.08.07.13.08h0s.02,0,.03,0h0s64.25,8.52,64.25,8.52c0,0,.01,0,.02,0,.05,0,.09-.01.13-.04.02-.02.04-.04.05-.07h0s4.26-10.23,4.26-10.23v-.06s.01,0,.01,0c0-.09-.07-.18-.16-.19l-30.97-4.22h0c-.11-.02-.21-.08-.27-.17-.06-.09-.07-.21-.04-.32h0s12.21-36.58,12.21-36.58h0c.05-.16.21-.26.37-.26.01,0,.03,0,.04,0h0s23.64,3.2,23.64,3.2c0,0,.01,0,.02,0,.05,0,.09-.01.13-.04.01-.01.02-.02.03-.04h0s6.83-9.8,6.83-9.8l.03-.1h0c0-.1-.07-.18-.17-.19l-26.5-3.22c-.12-.01-.22-.08-.28-.18l-.02-.03h0s0,0,0,0c-.05-.09-.05-.2-.02-.29h0s12.13-32.41,12.13-32.41c.06-.15.21-.25.37-.25.01,0,.03,0,.04,0h0s28.11,3.69,28.11,3.69c0,0,.01,0,.02,0,.05,0,.09-.01.13-.04,0,0,.02-.01.02-.02h0s8.79-10.25,8.79-10.25c.03-.03.04-.07.04-.11h0c0-.1-.07-.18-.17-.19l-67.02-7.59s-.01,0-.02,0Z"/>
  </g>
</svg>