<?xml version="1.0" encoding="UTF-8"?>
<svg id="Layer_1" xmlns="http://www.w3.org/2000/svg" version="1.1" viewBox="0 0 595.28 841.89">
  <!-- Generator: Adobe Illustrator 29.2.1, SVG Export Plug-In . SVG Version: 2.1.0 Build 116)  -->
  <defs>
    <style>
      .st0 {
        fill: #fcdf3d;
      }

      .st1 {
        fill: #fff;
      }
    </style>
  </defs>
  <g id="layer4">
    <g>
      <path class="st0" d="M544.67,136.29c12.33,18.14,12.46,37.05,8.47,52.67-4.09,15.93-12.62,28.77-38.22,35.03-10.6,2.6-24.17,4.08-38.71,5.67-17.45,1.91-36.4,3.98-53.95,8.28-2.62.65-5.21,1.33-7.75,2.08-33.83,9.91-60.58,29.82-87.68,50.02-.41.3-.91.46-1.39.45-.19,0-.37-.03-.55-.08h0c-.07.02-.14.03-.22.04-.09,0-.18,0-.27,0-1.14-.02-2.11-.87-2.23-2.03-2.03-18.81-3.97-37.87,23.05-72.04,26.69-33.76,82.09-82.85,121.93-99.08,8.72-3.56,16.73-5.55,24.08-6.29,2.55-.26,5.03-.36,7.41-.33,22.47.3,37.35,12.83,46.05,25.62ZM548.72,187.83c3.77-14.72,3.6-32.2-7.81-48.98-8.09-11.91-21.72-23.35-42.36-23.62-2.21-.03-4.49.07-6.86.31-6.86.69-14.45,2.57-22.82,5.98-38.84,15.81-93.65,64.26-120.07,97.67-18.72,23.68-22.95,39.51-23.13,53.22-.06,4.24.28,8.28.69,12.3,13.14-9.8,26.42-19.58,40.64-28.17,14.21-8.58,29.36-15.95,46.25-20.9,2.61-.78,5.27-1.48,7.95-2.14,17.9-4.38,37.16-6.48,54.55-8.38,14.64-1.61,27.87-3.05,38.12-5.56,23.85-5.85,31.18-17.32,34.88-31.74Z"/>
      <path class="st0" d="M540.91,138.85c11.41,16.78,11.59,34.26,7.81,48.98-3.7,14.42-11.03,25.9-34.88,31.74-10.24,2.51-23.47,3.95-38.12,5.56-17.39,1.9-36.65,4-54.55,8.38-2.68.65-5.34,1.36-7.95,2.14-16.89,4.95-32.04,12.32-46.25,20.9-14.21,8.58-27.49,18.37-40.64,28.17-.41-4.02-.74-8.06-.69-12.3.18-13.71,4.41-29.53,23.13-53.22,26.42-33.41,81.23-81.87,120.07-97.67,8.38-3.41,15.96-5.29,22.82-5.98,2.37-.24,4.65-.34,6.86-.31,20.64.27,34.27,11.71,42.36,23.62Z"/>
      <path class="st0" d="M536.03,359.64c-.02,1.23-.1,2.47-.26,3.74-2.38,18.82-21.31,41.05-44.85,40.74-.69,0-1.38-.04-2.08-.09-2.77-.2-5.58-.7-8.41-1.56-9.93-3.02-20.17-10.45-30.23-19.66s-19.93-20.23-29.11-30.45c-3.54-3.94-6.98-7.77-10.31-11.38-3.34-3.6-6.57-6.99-9.67-10.02-11.15-10.9-20.65-17.24-29.36-21.32-8.72-4.08-16.63-5.89-24.61-7.72-1.23-.29-1.99-1.51-1.71-2.73,0-.02.01-.04.02-.05.53,1.06,1.8,1.53,2.91,1.06,1.37-.57,2.74-1.15,4.09-1.72,6.79,1.61,13.72,3.51,21.23,7.03,9.1,4.26,19.04,10.87,30.62,22.19,3.17,3.09,6.44,6.54,9.83,10.18,3.37,3.65,6.83,7.5,10.36,11.43,9.38,10.44,19.11,21.24,28.79,30.13,9.67,8.89,19.3,15.87,28.48,18.66,2.51.76,4.98,1.21,7.4,1.38.6.04,1.2.07,1.79.07,20.75.27,38.16-19.66,40.31-36.75.13-1.08.21-2.14.22-3.2.23-17.51-16.05-32.29-39.43-45.86-12.24-7.1-26.03-13.64-39.87-18.65-13.84-4.99-27.72-8.46-40.16-9.4-.2-.01-.39-.03-.59-.04-1.82-.12-3.6-.2-5.36-.22-20.28-.27-36.91,6.06-53.63,13.05-1.44-.34-2.86-.67-4.29-1-1.21-.29-2.42.46-2.71,1.65-.03-.05-.06-.1-.08-.15-.48-1.16.05-2.5,1.21-2.98,19.5-8.22,39.5-16.69,65.17-14.9.2.01.41.04.61.05,12.91.98,27.2,4.54,41.37,9.66,14.16,5.12,28.2,11.79,40.6,18.99,23.11,13.41,41.98,29.44,41.71,49.83Z"/>
      <path class="st0" d="M531.47,359.61c-.01,1.06-.09,2.12-.22,3.2-2.15,17.09-19.56,37.03-40.31,36.75-.59,0-1.19-.04-1.79-.07-2.42-.17-4.89-.61-7.4-1.38-9.17-2.79-18.8-9.77-28.48-18.66-9.68-8.89-19.41-19.69-28.79-30.13-3.53-3.93-6.99-7.77-10.36-11.43-3.38-3.64-6.66-7.09-9.83-10.18-11.58-11.31-21.52-17.93-30.62-22.19-7.5-3.52-14.44-5.42-21.23-7.03,16.71-6.99,33.35-13.32,53.63-13.05,1.76.02,3.54.1,5.36.22.2.01.39.03.59.04,12.44.94,26.32,4.41,40.16,9.4,13.84,5,27.63,11.55,39.87,18.65,23.38,13.57,39.66,28.36,39.43,45.86Z"/>
      <path class="st0" d="M501.92,708.44c21.6,11.45,24.97,22.22,10.1,32.31-13.25,7.05-24.09,11.84-32.52,14.38-17.49,5.28-35.13,9.17-52.95,11.67-37.76,5.92-83.08,9.6-135.96,11.06-49.65,1.32-89.19.41-118.62-2.74-12.74-1.58-26.55-4.46-41.43-8.64-13.23-6.5-19.41-11.09-18.55-13.78.51-9.17,6.54-18.08,18.08-26.71,10.49-7.52,20.68-13.89,30.57-19.13,39.87-18.93,59.83-28.64,59.86-29.14,3.87-1.79,11.09-7.62,21.64-17.51,5.73-6.72,9.87-13.95,12.44-21.7,6.32-21.22,9.61-36.3,9.88-45.25,20.31,13.18,35.47,19.11,45.49,17.8,4.32-.26,9.3-1.8,14.93-4.58,10.71-6.31,19.18-12.42,25.37-18.34l1.94,7.05c8.68,32.38,17.89,54.73,27.64,67.04,2.93,2.95,8.92,6.45,17.94,10.52,26.1,6.49,45.95,12,59.54,16.49,19.65,7.33,34.52,13.74,44.61,19.2Z"/>
      <path class="st0" d="M438,453.39c.78.41,1.27,1.24,1.23,2.13s-.59,1.68-1.42,2.01l-1.57.64-.32-.72.17-4.14.05-.86c.62.32,1.23.63,1.85.94Z"/>
      <path class="st0" d="M435.93,457.44l.32.72c-3.68,1.49-7.46,2.97-11.31,4.13-4.4,1.32-8.87,2.2-13.38,2.14-4.01-.05-8.01-.85-11.98-2.66-3.97-1.8-7.9-4.62-11.81-8.72-4.11-4.33-8.22-10.13-12.24-16.54-4.04-6.4-7.98-13.43-11.81-20.22-3.6-6.39-7.07-12.55-10.42-17.92-3.34-5.36-6.54-9.94-9.59-13.14-.43-.46-.86-.88-1.27-1.27-1.79-1.66-3.48-2.77-5.1-3.46-1.61-.69-3.15-.96-4.63-.98-1.9-.03-3.79.36-5.73.99s-3.95,1.51-6.09,2.45c-2.01.88-4.16,1.84-6.41,2.57s-4.6,1.24-7.02,1.24h-.17c-2.23-.03-4.46-.49-6.66-1.15-2.2-.66-4.36-1.51-6.41-2.31-2.28-.89-4.48-1.74-6.63-2.38s-4.27-1.06-6.4-1.08c-1.91-.03-3.87.28-5.89,1.1s-4.09,2.18-6.22,4.25c-3.49,3.39-7.05,8.63-10.76,14.93-3.7,6.31-7.52,13.69-11.49,21.37-3.77,7.28-7.65,14.81-11.65,21.74s-8.11,13.27-12.33,18.21c-5.4,6.32-11,10.35-16.71,12.77-5.7,2.42-11.52,3.26-17.37,3.18-3.59-.05-7.19-.43-10.77-.98-3.46-.54-6.89-1.22-10.26-1.9.11-.07.21-.14.31-.23,1.37-1.17,2.73-2.35,4.1-3.55,2.2.43,4.38.84,6.54,1.17,3.42.53,6.79.89,10.14.93,5.25.07,10.44-.65,15.53-2.83,5.1-2.17,10.12-5.8,15.03-11.54,4.01-4.68,7.95-10.77,11.84-17.52,3.89-6.76,7.74-14.18,11.55-21.56,3.89-7.51,7.76-15.02,11.62-21.58,3.86-6.56,7.7-12.18,11.51-15.89,2.54-2.49,5.11-4.15,7.67-5.21,2.55-1.05,5.12-1.46,7.67-1.43s5.17.55,7.62,1.27c2.46.72,4.81,1.64,7,2.5,2.16.85,4.16,1.62,6.05,2.19,1.9.58,3.69.94,5.42.96h.13c1.84,0,3.69-.39,5.58-1,1.91-.63,3.88-1.49,5.99-2.42,2.04-.89,4.24-1.87,6.53-2.61,2.3-.74,4.72-1.25,7.2-1.22,2.11.03,4.22.45,6.35,1.34,2.13.91,4.27,2.31,6.42,4.32.48.46.98.95,1.47,1.46,3.29,3.46,6.69,8.31,10.16,13.88,3.46,5.56,6.98,11.81,10.52,18.09,3.89,6.89,7.8,13.81,11.7,20.05,3.91,6.22,7.82,11.74,11.69,15.82,3.51,3.69,6.97,6.15,10.39,7.71s6.8,2.2,10.15,2.24c3.97.05,7.95-.73,12.01-1.94,2.59-.79,5.21-1.74,7.88-2.79,1.48.79,2.95,1.54,4.42,2.29Z"/>
      <path class="st0" d="M436.15,452.44l-.05.86c-1.55.63-3.08,1.25-4.59,1.85-8.69-4.66-17.48-10.63-25.12-24.77-2.34-4.32-4.57-9.4-6.91-14.75-3.27-7.47-6.82-15.54-11.34-23.31-3.94-6.77-8.63-13.33-14.54-19.03l.25-4.88v-.19s-.03-.89-.03-.89c.03.02.07.05.1.08,7.62,6.63,13.43,14.53,18.14,22.62,4.71,8.09,8.34,16.37,11.59,23.77,2.36,5.39,4.5,10.29,6.73,14.41,4.13,7.65,8.56,12.67,13.19,16.43,4.06,3.28,8.27,5.59,12.57,7.81Z"/>
      <path class="st0" d="M436.1,453.3l-.17,4.14c-1.47-.75-2.94-1.5-4.42-2.29,1.52-.6,3.05-1.22,4.59-1.85Z"/>
      <path class="st0" d="M431.51,455.15c-2.66,1.04-5.29,2-7.88,2.79-4.06,1.22-8.04,1.99-12.01,1.94-3.35-.04-6.73-.69-10.15-2.24s-6.88-4.02-10.39-7.71c-3.88-4.07-7.78-9.59-11.69-15.82-3.9-6.23-7.81-13.15-11.7-20.05-3.54-6.28-7.07-12.53-10.52-18.09-3.47-5.57-6.86-10.41-10.16-13.88-.49-.51-.99-1-1.47-1.46-2.15-2.01-4.3-3.41-6.42-4.32-2.13-.9-4.24-1.32-6.35-1.34-2.48-.03-4.9.48-7.2,1.22-2.29.74-4.48,1.72-6.53,2.61-2.11.93-4.08,1.79-5.99,2.42-1.9.62-3.74,1.01-5.58,1.01h-.13c-1.73-.02-3.52-.39-5.42-.96-1.89-.58-3.89-1.34-6.05-2.19-2.19-.86-4.54-1.78-7-2.5-2.45-.72-5.01-1.24-7.62-1.27s-5.12.38-7.67,1.43c-2.56,1.06-5.13,2.72-7.67,5.21-3.81,3.71-7.65,9.33-11.51,15.89-3.86,6.56-7.73,14.07-11.62,21.58-3.81,7.38-7.66,14.8-11.55,21.56-3.89,6.75-7.83,12.84-11.84,17.52-4.92,5.75-9.93,9.37-15.03,11.54-5.09,2.17-10.28,2.89-15.53,2.83-3.35-.04-6.72-.41-10.14-.93-2.16-.33-4.33-.74-6.54-1.17,6.05-5.25,12.07-10.63,17.61-16.41,6.77-7.07,12.83-14.75,17.29-23.54,1.77-3.48,3.28-7.12,4.67-10.83,1.38-3.72,2.64-7.51,3.89-11.27,1.3-3.89,2.58-7.77,4-11.57,1.43-3.8,2.98-7.52,4.81-11.12,1.76-3.46,3.76-6.78,6.12-9.91,2.08-2.74,4.44-5.35,7.08-7.81l.18,4.66c.05,1.26,1.11,2.23,2.36,2.19,1.26-.05,2.24-1.11,2.19-2.36l-.21-5.41h0s.14-3.02.14-3.02c3.91-3.03,8.29-5.74,13.07-8.07,10.36-5.04,22.61-8.3,36.23-9.11,2.77-.16,5.61-.24,8.49-.2,12.68.17,26.01,2.31,38.35,6.32,11.56,3.76,22.27,9.15,30.8,16.11l-.21,4.16c-.07,1.26.9,2.33,2.16,2.4,1.26.06,2.32-.91,2.39-2.16l.03-.53c5.91,5.71,10.6,12.26,14.54,19.03,4.53,7.77,8.07,15.84,11.34,23.31,2.34,5.35,4.56,10.43,6.91,14.75,7.63,14.14,16.43,20.12,25.12,24.77ZM351.2,369.64c.08-1.26-.89-2.33-2.14-2.41h-.09c-1.22-.02-2.24.92-2.32,2.15-.07,1.26.89,2.33,2.15,2.41,1.25.07,2.33-.89,2.4-2.15Z"/>
      <path class="st0" d="M407.92,605.53l2-1.07,2-1.08c.37.68.8,1.97,0,3.25-.44.68-1.06,1.06-1.54,1.27-1.26.56-3.11.66-4.96.63-3.99-.05-10.13-.79-17.32-1.87-6.53-.98-13.9-2.23-21.29-3.49l.44-2.61v-1.93c15.81,2.71,30.99,5.26,38.22,5.35.31,0,.59,0,.85,0,.85.7,1.36,1.2,1.56,1.53,0,.01,0,.02.02.03Z"/>
      <path class="st0" d="M408.49,603.76c-.14.04-.41.1-.85.15-.33.03-.76.06-1.3.06-1.11-.9-2.77-2.14-4.98-3.76-2.77-2.02-6.13-4.46-9.38-7.2-3.24-2.75-6.37-5.82-8.71-9.12-4.8-6.76-6.17-14.31-6.07-22.02.05-3.64.43-7.32.93-10.95l5.49-7.37c.09-.12.16-.25.22-.38.04.21.03.42,0,.64-1.04,6.36-2.02,12.47-2.1,18.22-.09,6.99,1.15,13.46,5.24,19.21,2.08,2.94,4.91,5.72,7.94,8.28,3.03,2.57,6.25,4.92,9.11,7,1.65,1.21,3.37,2.44,4.8,3.6,1.42,1.17,2.57,2.27,3.09,3.24l-2,1.08-2,1.07s0-.02-.02-.03c-.02-.08-.08-.26-.07-.5s.06-.51.25-.82c.15-.26.33-.38.42-.42Z"/>
      <path class="st0" d="M408.49,603.76c-.08.05-.26.17-.42.42-.19.31-.25.59-.25.82s.05.42.07.5c-.2-.33-.71-.83-1.56-1.53.54,0,.97-.04,1.3-.06.44-.04.71-.11.85-.15Z"/>
      <path class="st0" d="M401.36,600.22c2.21,1.62,3.87,2.85,4.98,3.76-.26,0-.54.01-.85,0-7.23-.1-22.41-2.65-38.21-5.35l.07-33.21,10.79-14.49c-.51,3.63-.89,7.31-.93,10.95-.1,7.71,1.27,15.26,6.07,22.02,2.34,3.29,5.47,6.36,8.71,9.12,3.24,2.74,6.6,5.19,9.38,7.2Z"/>
      <path class="st1" d="M400.18,476.81c0,.27-.05.53-.14.78-7.34,19.42-14.73,39.06-23.17,56.48-8.45,17.42-17.93,32.62-29.44,43.17-6.39,5.87-13.42,10.31-20.77,13.26-7.35,2.95-15.02,4.41-22.71,4.31-6.27-.08-12.52-1.21-18.58-3.39-6.07-2.17-11.95-5.41-17.47-9.73-4.87-3.8-9.47-8.46-13.83-13.77l.11-4.7c0-.49-.14-.96-.42-1.37l-2.99-4.26.77-.54c5.96,8.48,12.29,15.67,19.17,21.05,5.15,4.02,10.6,7.02,16.2,9.03s11.35,3.04,17.1,3.12c7.05.09,14.13-1.24,20.95-3.98,6.82-2.73,13.38-6.87,19.39-12.39,11.02-10.1,20.17-24.76,28.41-41.8,8.09-16.72,15.31-35.73,22.58-54.99.14.15.27.29.4.45.85.94,2.29,1.01,3.22.17.7-.64.92-1.62.62-2.45.37.4.6.96.59,1.55Z"/>
      <path class="st1" d="M399.59,475.26c.3.83.08,1.81-.62,2.45-.93.84-2.37.77-3.22-.17-.14-.15-.27-.29-.4-.45.13-.34.26-.68.39-1.01-.06.21-.11.44-.11.67l.13-.73c.12-.33.32-.63.56-.86.42-.41.98-.66,1.61-.65s1.25.3,1.66.75Z"/>
      <path class="st1" d="M395.76,476.02s-.01.04-.02.06c-.13.34-.26.68-.39,1.01-5.3-5.9-10.65-11.84-15.83-18.33-5.3-6.64-10.42-13.85-15.12-22.13-2.68-4.72-5.21-9.77-7.67-14.66-3.16-6.3-6.13-12.16-9.09-16.92-2.95-4.76-5.88-8.4-8.97-10.26-1.9-1.15-3.9-1.61-6.07-1.64-1.73-.02-3.52.23-5.41.65-1.89.41-3.86.98-5.96,1.59-2.09.6-4.29,1.25-6.54,1.74-2.26.48-4.57.81-6.87.78h-.36c-2.34-.08-4.65-.52-6.88-1.14-2.22-.61-4.36-1.39-6.38-2.11-2.09-.75-4.04-1.44-5.91-1.96s-3.66-.85-5.42-.87c-2.05-.03-4.04.38-6.02,1.45-2.7,1.45-5.47,4.16-8.33,7.76-2.86,3.6-5.82,8.12-8.9,13.21-2.09,3.45-4.19,7.1-6.33,10.79-2.17,3.77-4.38,7.59-6.62,11.29-5.4,8.93-10.98,17.14-16.62,24.96-5.37,7.45-10.81,14.57-16.25,21.64-.17-.41-.36-.81-.53-1.23l-.28,2.3c.27-.36.55-.71.81-1.07,11.98,27.41,23.84,54.29,37.74,74.1l-.77.54-13.14-18.63c-.66-.94-1.89-1.22-2.89-.72-9.12-16.8-17.43-35.85-25.65-54.69-.33-.76-.22-1.64.28-2.3,5.71-7.44,11.4-14.84,16.98-22.6,5.59-7.75,11.09-15.85,16.42-24.66,2.22-3.66,4.4-7.44,6.58-11.21,2.13-3.69,4.26-7.37,6.37-10.88,3.01-4.96,6.08-9.72,9.23-13.68,3.15-3.97,6.39-7.14,9.74-8.94,1.37-.74,2.75-1.25,4.12-1.57s2.75-.44,4.12-.43c2.21.03,4.42.45,6.57,1.03,2.15.59,4.25,1.35,6.24,2.07,2.09.75,4.09,1.46,6.05,2.01,1.96.54,3.89.9,5.81.97h.28c1.9.03,3.84-.25,5.85-.68s4.07-1.03,6.22-1.66c2.02-.59,4.13-1.21,6.27-1.68,2.14-.46,4.3-.77,6.44-.75,1.42.02,2.83.19,4.22.55,1.41.37,2.78.94,4.14,1.74,3.8,2.29,7.24,6.57,10.49,11.75,3.24,5.19,6.28,11.3,9.28,17.28,2.47,4.91,4.95,9.87,7.56,14.46,4.56,8.04,9.53,15.04,14.73,21.55,5.18,6.5,10.6,12.51,16.06,18.56.21.23.35.49.45.77-.41-.46-1-.74-1.66-.75s-1.19.23-1.61.65c-.24.24-.44.53-.56.86Z"/>
      <path class="st1" d="M395.76,476.02l-.13.73c0-.23.05-.46.11-.67.01-.02.02-.04.02-.06Z"/>
      <path class="st0" d="M383.16,540.36c.89.66,1.16,1.86.69,2.82-.11-.98-.86-1.81-1.88-1.98-1.24-.21-2.41.64-2.61,1.88-.42,2.57-.85,5.2-1.21,7.84l-10.79,14.49v-.76s-.45,1.35-.45,1.35l.45-.59-.07,33.21c-.63-.11-1.27-.22-1.9-.33h-2.66s.07-33.66.07-33.66c0-.49.15-.96.45-1.35l16.73-22.46c.75-1.01,2.18-1.21,3.19-.47Z"/>
      <path class="st0" d="M383.85,543.18c-.06.13-.13.26-.22.38l-5.49,7.37c.36-2.65.79-5.27,1.21-7.84.21-1.24,1.38-2.08,2.61-1.88,1.03.16,1.78.99,1.88,1.98Z"/>
      <path class="st0" d="M379.51,458.77c5.17,6.49,10.53,12.43,15.83,18.33-7.26,19.26-14.49,38.26-22.58,54.99-8.25,17.04-17.39,31.7-28.41,41.8-6,5.51-12.57,9.65-19.39,12.39-6.83,2.74-13.91,4.08-20.95,3.98-5.75-.08-11.5-1.1-17.1-3.12s-11.05-5.02-16.2-9.03c-6.88-5.38-13.22-12.58-19.17-21.05-13.9-19.82-25.76-46.69-37.74-74.1,5.43-7.07,10.88-14.19,16.25-21.64,5.64-7.83,11.22-16.03,16.62-24.96,2.24-3.7,4.45-7.52,6.62-11.29,2.14-3.69,4.25-7.33,6.33-10.79,3.08-5.09,6.04-9.61,8.9-13.21,2.87-3.6,5.63-6.31,8.33-7.76,1.98-1.07,3.97-1.48,6.02-1.45,1.76.02,3.55.36,5.42.87s3.82,1.21,5.91,1.96c2.02.73,4.16,1.51,6.38,2.11,2.22.62,4.54,1.06,6.88,1.13h.36c2.3.04,4.61-.29,6.87-.77,2.26-.49,4.46-1.14,6.54-1.74,2.1-.61,4.08-1.19,5.96-1.59,1.89-.42,3.68-.67,5.41-.65,2.17.03,4.17.5,6.07,1.64,3.09,1.86,6.02,5.5,8.97,10.26,2.96,4.76,5.93,10.62,9.09,16.92,2.46,4.89,4.99,9.95,7.67,14.66,4.7,8.28,9.82,15.49,15.12,22.13Z"/>
      <path class="st0" d="M369.31,368.27l-.15-4.68c1.62,1.19,3.18,2.43,4.67,3.73l.03.89v.19s-.26,4.88-.26,4.88c-.86-.83-1.75-1.64-2.66-2.44-.55-.49-1.13-.96-1.7-1.43l.07-1.14Z"/>
      <path class="st0" d="M349.45,321.48l-3.91-3.4h0s-4.18-3.1-4.18-3.1h-.02s-.03-.03-.03-.03l-4.38-2.71h-.03s0-.02,0-.02h-.02s0-.01,0-.01l-.05-.03-4.52-2.31-.08-.03-4.8-1.97h-.03s-5.02-1.59-5.02-1.59h-.02s-5.04-1.16-5.04-1.16l-5.08-.73h-.07s-5.21-.33-5.21-.33l-5.24.12-5.31.57h0s-.04,0-.04,0l-5.19,1h-.06s-5.02,1.41-5.02,1.41h-.02s-.04.02-.04.02l-4.93,1.85h-.02s-4.87,2.31-4.87,2.31l-4.51,2.61-.04.03-4.31,2.99-.03.02-4.01,3.31-.03.03-3.81,3.72h-.01s-3.41,3.95-3.41,3.95l-.06.07.03-.02-3.15,4.32v-.04s0,.04,0,.04l-.05.08-2.69,4.42-.02.04-2.36,4.73-.04.09-1.91,4.82v.04s-.02.02-.02.02l-1.54,5.05-1.12,5.19-.19,1.46c-1.76,1.2-3.44,2.45-5.05,3.78v-.28c.01-.07.02-.13.03-.19l.71-5.45c0-.07.01-.13.03-.19l1.15-5.38c.02-.06.05-.18.05-.18l1.6-5.26.06-.18,2.04-5.1c.02-.06.05-.12.08-.18l2.46-4.92s.05-.11.09-.16l2.85-4.7s.07-.11.1-.16l3.24-4.44.12-.15,3.6-4.16s.08-.09.13-.14l3.93-3.84s.09-.09.14-.13l4.24-3.49c.05-.05.1-.08.15-.12l4.51-3.14c.05-.03.11-.07.16-.1l4.76-2.75c.06-.03.12-.06.17-.09l4.97-2.34c.06-.02.12-.05.18-.07l5.15-1.92.18-.06,5.3-1.48c.06-.02.12-.03.18-.05l5.4-1.03c.06-.02.12-.03.18-.03l5.47-.59c.06,0,.13,0,.19,0l5.49-.13h.19s5.41.33,5.41.33c.06,0,.12.01.18.02l5.36.76c.06.01.12.02.18.04l5.27,1.2c.06.01.12.03.18.05l5.16,1.63c.06.02.12.04.18.07l5,2.05c.06.03.11.05.17.08l4.82,2.45c.06.03.11.06.17.09l4.6,2.84s.1.07.15.11l4.36,3.21.15.12,4.07,3.55s.09.08.13.13l3.77,3.88s.09.09.13.14l3.44,4.18s.08.09.12.14l3.08,4.45c.04.05.07.1.1.16l2.71,4.68c.03.06.06.11.09.17l2.32,4.89c.03.05.05.11.08.17l1.9,5.07c.02.05.04.11.06.17l1.48,5.21c.02.06.03.12.05.18l1.05,5.3.03.18.61,5.38c0,.06,0,.13.02.19l.14,4.51c-1.49-1.3-3.05-2.54-4.67-3.73v-.45s-.01-.02-.01-.02l-.6-5.26h0s0,0,0,0l-1.02-5.15h0s0,0,0,0v-.05s-1.42-4.93-1.42-4.93l-.03-.09-1.81-4.79v-.03s-.03-.03-.03-.03v-.03s-2.19-4.61-2.19-4.61l-.06-.11-2.57-4.43-.05-.08-2.94-4.24-.04-.05-3.28-3.97-.05-.05-3.57-3.68-.03-.03Z"/>
      <path class="st0" d="M373.6,373.28l-.03.53c-.07,1.25-1.13,2.22-2.39,2.16-1.26-.07-2.23-1.14-2.16-2.4l.21-4.16c.57.47,1.15.95,1.7,1.43.91.79,1.8,1.6,2.66,2.44Z"/>
      <path class="st0" d="M367.28,598.63v1.93s-1.9-2.26-1.9-2.26c.63.11,1.27.22,1.9.33Z"/>
      <path class="st0" d="M365.38,598.3l1.89,2.26-.44,2.61c-.74-.13-1.48-.25-2.22-.38-1.1-.18-1.9-1.14-1.9-2.25v-2.25s2.67,0,2.67,0Z"/>
      <polygon class="st0" points="367.35 564.65 367.35 565.42 366.9 566.01 367.35 564.65"/>
      <path class="st0" d="M369.16,363.59l.15,4.68-.07,1.14c-8.53-6.95-19.24-12.34-30.8-16.11-12.34-4-25.67-6.15-38.35-6.32-2.88-.04-5.72.03-8.49.2-13.62.81-25.88,4.07-36.23,9.11-4.78,2.33-9.16,5.04-13.07,8.07l.1-2.18v-.05s.5-3.84.5-3.84c3.25-2.25,6.75-4.28,10.47-6.09,10.94-5.33,23.81-8.72,37.96-9.56,2.89-.18,5.84-.24,8.82-.2,13.05.17,26.84,2.36,39.7,6.54,10.76,3.49,20.86,8.37,29.31,14.61Z"/>
      <path class="st0" d="M369.15,363.14v.45c-8.43-6.24-18.53-11.12-29.3-14.61-12.86-4.18-26.65-6.37-39.7-6.54-2.98-.04-5.93.02-8.82.2-14.15.84-27.02,4.23-37.96,9.56-3.72,1.81-7.22,3.85-10.47,6.09l.19-1.46,1.12-5.19,1.54-5.05v-.02s.02-.04.02-.04l1.91-4.82.04-.09,2.36-4.73.02-.04,2.69-4.42.05-.08h0s3.15-4.32,3.15-4.32l.03-.05,3.41-3.94h.01s3.81-3.73,3.81-3.73l.03-.03,4.01-3.31.03-.02,4.31-2.99.04-.03,4.51-2.61,4.87-2.3h.02s4.93-1.85,4.93-1.85h.04s.02-.02.02-.02l5.02-1.4h.06s5.19-1.01,5.19-1.01h.03s0,0,0,0l5.31-.57,5.24-.12,5.21.32h.05s.02.01.02.01l5.08.73,5.04,1.15h.02s5.02,1.59,5.02,1.59h0s.03.01.03.01l4.8,1.97.08.03,4.52,2.31.05.03h0s.02.01.02.01h0s.03.02.03.02l4.38,2.71.03.02h.02s4.18,3.1,4.18,3.1h0s3.91,3.41,3.91,3.41l.03.03,3.57,3.68.04.05h0s3.28,3.97,3.28,3.97l.03.05h0s2.94,4.24,2.94,4.24l.05.08,2.57,4.43.06.11,2.18,4.61v.03s.02.03.02.03h0s0,.03,0,.03l1.81,4.79.03.09,1.42,4.93v.05s0,0,0,0l1.02,5.15h0s.6,5.27.6,5.27v.02Z"/>
      <polygon class="st0" points="368.55 357.85 368.55 357.87 368.55 357.86 368.55 357.85"/>
      <polygon class="st0" points="367.52 352.69 367.53 352.7 367.52 352.7 367.52 352.69"/>
      <polygon class="st0" points="364.23 342.76 364.25 342.79 364.24 342.79 364.23 342.76"/>
      <polygon class="st0" points="356.38 329.21 356.42 329.26 356.41 329.26 356.38 329.21"/>
      <polygon class="st0" points="353.05 325.19 353.1 325.24 353.09 325.24 353.05 325.19"/>
      <path class="st0" d="M349.06,367.24c1.25.08,2.22,1.15,2.14,2.41-.07,1.26-1.15,2.22-2.4,2.15-1.26-.08-2.22-1.15-2.15-2.41.08-1.23,1.1-2.17,2.32-2.15h.09Z"/>
      <path class="st0" d="M352.44,298.5c-1.36.56-2.73,1.14-4.09,1.72-1.11.48-2.38,0-2.91-1.06.3-1.2,1.51-1.94,2.71-1.65,1.43.33,2.85.66,4.29,1Z"/>
      <polygon class="st0" points="327.41 307.87 327.38 307.87 327.38 307.86 327.41 307.87"/>
      <polygon class="st0" points="312.23 304.39 312.21 304.39 312.16 304.38 312.23 304.39"/>
      <polygon class="st0" points="296.4 304.75 296.4 304.76 296.39 304.76 296.36 304.76 296.4 304.75"/>
      <path class="st0" d="M292.24,282.9c.23,1.24-.57,2.43-1.81,2.68-.13.03-.27.04-.4.04-.44.58-1.13.92-1.84.91-.31,0-.61-.07-.91-.2-30.69-13.78-60.97-27.36-89.27-31.23-7.12-.98-14.12-1.35-21.05-1.44-5.55-.07-11.06.03-16.54.13-5.31.1-10.6.2-15.87.13-9.32-.12-18.53-.77-27.61-2.91-25.99-6.11-50.77-24.34-60.8-48.35-10.02-23.99-5.16-53.55,13.96-72.37,10.68-10.52,25.75-17.6,43.53-18.69,1.92-.11,3.88-.17,5.86-.14,12.53.17,26.2,3.26,40.51,10.06,37.31,17.7,79.12,60.68,101.82,91.63,22.89,31.19,26.68,50.58,30.42,69.76ZM287.29,281.33c-3.54-18.03-7.77-36.37-29.15-65.5-22.52-30.69-63.77-72.98-100.09-90.21-13.77-6.54-26.81-9.45-38.63-9.61-1.87-.02-3.72.02-5.52.13-16.71,1.02-30.73,7.67-40.61,17.39-17.71,17.43-22.31,44.99-12.95,67.37,9.36,22.4,32.78,39.83,57.64,45.67,8.65,2.03,17.49,2.67,26.6,2.79,5.16.07,10.4-.03,15.76-.13,5.45-.1,11.01-.2,16.66-.13,7.07.09,14.29.47,21.63,1.48,14.24,1.96,28.92,6.28,43.79,11.81,14.87,5.52,29.9,12.24,44.86,18.94Z"/>
      <path class="st0" d="M258.14,215.83c21.38,29.13,25.61,47.47,29.15,65.5-14.96-6.71-30-13.43-44.86-18.94-14.87-5.53-29.55-9.85-43.79-11.81-7.35-1.01-14.56-1.38-21.63-1.48-5.65-.07-11.21.03-16.66.13-5.36.1-10.6.2-15.76.13-9.11-.12-17.94-.76-26.6-2.79-24.86-5.85-48.29-23.28-57.64-45.67-9.36-22.39-4.76-49.95,12.95-67.37,9.88-9.72,23.9-16.37,40.61-17.39,1.8-.11,3.65-.15,5.52-.13,11.82.16,24.85,3.07,38.63,9.61,36.32,17.23,77.57,59.52,100.09,90.21Z"/>
      <path class="st0" d="M264.99,297.32c1.02.73,1.25,2.16.52,3.18-.01,0-.02.03-.03.04,0-.19-.02-.39-.07-.58-.3-1.22-1.54-1.97-2.77-1.66-1.01.26-2.02.5-3.03.76-10.12-7.2-21.31-14.1-46.87-18.11-5.2-.82-10.99-1.51-17.16-2.02-6.18-.52-12.74-.85-19.46-.94-11.44-.15-23.3.4-34.57,1.93-11.27,1.52-21.96,4.04-31.04,7.8-23.18,9.59-35.63,27.06-35.84,43.01-.05,3.98.67,7.87,2.16,11.52,3.29,8.03,10.46,15.25,19.28,20.48,8.83,5.23,19.31,8.48,29.22,8.61,3.19.04,6.29-.24,9.23-.88,6.89-1.49,13.06-4.94,18.97-9.5,5.92-4.56,11.6-10.25,17.52-16.19,3.09-3.12,6.25-6.29,9.52-9.36,3.27-3.08,6.66-6.03,10.22-8.74,10.27-7.8,21.89-13.3,34.12-17.65,11.25-4.01,23.02-7.05,34.7-9.97.91.65,1.82,1.3,2.72,1.96,1.01.72,2.4.51,3.15-.48-.01,1-.71,1.92-1.73,2.18-12.78,3.19-25.42,6.37-37.32,10.6-11.9,4.23-23.06,9.54-32.89,17-3.4,2.59-6.66,5.43-9.85,8.43-3.18,2.99-6.29,6.12-9.41,9.25-5.8,5.81-11.65,11.72-17.96,16.58-6.32,4.87-13.12,8.69-20.79,10.35-3.31.72-6.75,1.03-10.25.98-10.59-.14-21.88-3.58-31.47-9.25-9.59-5.68-17.46-13.59-21.18-22.67-1.77-4.31-2.59-8.83-2.53-13.37.24-18.21,14.57-37.11,38.68-47.09,9.5-3.93,20.58-6.53,32.17-8.11,11.58-1.58,23.68-2.13,35.24-1.98,6.83.09,13.5.43,19.77.95,6.28.52,12.18,1.23,17.49,2.06,14.41,2.26,24.47,5.44,32.34,9.08,7.88,3.63,13.56,7.73,19.21,11.79Z"/>
      <path class="st0" d="M265.4,299.96c.05.19.07.39.07.58-.74.99-2.14,1.2-3.15.48-.9-.65-1.81-1.3-2.72-1.96,1.01-.26,2.02-.5,3.03-.76,1.22-.31,2.46.43,2.77,1.66Z"/>
      <path class="st1" d="M254.18,563.21l-.11,4.7c-5.42-6.59-10.49-14.2-15.31-22.51-.18-1.4-.37-2.8-.56-4.18-.17-1.24-1.32-2.12-2.56-1.94-.1,0-.19.03-.28.07-.21-.36-.41-.74-.61-1.11,1-.5,2.23-.22,2.89.72l13.14,18.63,2.99,4.26c.28.4.43.88.42,1.37Z"/>
      <path class="st0" d="M254.07,567.91l-.76,31.19c-.02,1.11-.86,2.04-1.95,2.19-.74.11-1.49.21-2.23.32l-.38-2.63,1.96-2.2c-.64.09-1.27.18-1.91.27l.81-33.2.43.61-.41-1.37-.02.76-10.4-14.75h0c-.13-1.25-.29-2.48-.45-3.72,4.82,8.31,9.89,15.92,15.31,22.51Z"/>
      <polygon class="st0" points="256.03 328 256 328.04 255.97 328.06 256.03 328"/>
      <path class="st0" d="M250.71,596.79l-1.96,2.2.05-1.93c.64-.09,1.27-.18,1.91-.27Z"/>
      <polygon class="st0" points="249.63 563.1 250.04 564.47 249.61 563.86 249.63 563.1"/>
      <polygon class="st0" points="252.86 332.32 252.85 332.36 252.84 332.36 252.86 332.32"/>
      <path class="st0" d="M207.99,602.9s.01-.02.02-.03c.2-.32.73-.81,1.6-1.49.26.01.54.03.85.03,7.23.1,22.48-2.05,38.34-4.34l-.05,1.93.38,2.63c-7.41,1.06-14.83,2.12-21.37,2.93-7.2.89-13.37,1.46-17.36,1.41-1.85-.02-3.7-.17-4.94-.77-.47-.23-1.08-.61-1.5-1.31-.77-1.3-.3-2.57.08-3.25l1.98,1.14,1.98,1.13Z"/>
      <path class="st0" d="M239.21,549.11l10.4,14.75-.81,33.2c-15.86,2.29-31.11,4.44-38.34,4.34-.31,0-.59-.02-.85-.03,1.13-.88,2.83-2.06,5.09-3.62,2.83-1.94,6.25-4.3,9.55-6.95,3.32-2.67,6.53-5.65,8.95-8.88,4.98-6.63,6.56-14.14,6.66-21.84.05-3.64-.23-7.31-.65-10.96Z"/>
      <path class="st0" d="M212.74,280.95c25.56,4.01,36.75,10.91,46.87,18.11-11.69,2.93-23.45,5.96-34.7,9.97-12.23,4.35-23.84,9.86-34.12,17.65-3.56,2.7-6.95,5.66-10.22,8.74-3.27,3.07-6.43,6.24-9.52,9.36-5.92,5.94-11.59,11.63-17.52,16.19-5.91,4.56-12.08,8.01-18.97,9.5-2.94.64-6.04.92-9.23.88-9.91-.13-20.39-3.38-29.22-8.61-8.82-5.23-15.99-12.44-19.28-20.48-1.49-3.65-2.21-7.54-2.16-11.52.21-15.95,12.66-33.42,35.84-43.01,9.08-3.76,19.76-6.28,31.04-7.8,11.27-1.53,23.13-2.08,34.57-1.93,6.72.09,13.28.42,19.46.94,6.17.51,11.97,1.2,17.16,2.02Z"/>
      <path class="st0" d="M242.9,358.29l-.49,3.84v-.14s-.01.19-.01.19l-.1,2.18c-1.64,1.26-3.19,2.58-4.66,3.94l-.03-.83v-.19s.24-5.21.24-5.21c1.61-1.33,3.29-2.59,5.05-3.78Z"/>
      <path class="st0" d="M242.16,367.39l.21,5.41c.05,1.25-.93,2.31-2.19,2.36-1.25.04-2.31-.93-2.36-2.19l-.18-4.66c1.47-1.36,3.03-2.68,4.66-3.94l-.14,3.01h0Z"/>
      <polygon class="st0" points="242.41 362 242.41 362.14 242.4 362.19 242.41 362"/>
      <path class="st0" d="M207.47,601.11c.08.06.26.18.39.44.19.3.24.59.24.82s-.07.42-.1.5c-.01,0-.01.02-.02.03l-1.98-1.13-1.98-1.14c.55-.95,1.72-2.03,3.18-3.16,1.45-1.12,3.19-2.31,4.89-3.48,2.91-2,6.2-4.27,9.29-6.76,3.09-2.48,6.01-5.18,8.16-8.06,4.23-5.64,5.65-12.08,5.74-19.09.08-5.74-.73-11.87-1.61-18.25-.03-.22-.02-.44,0-.65.05.13.13.27.21.39l5.3,7.52h0c.41,3.66.69,7.33.65,10.97-.1,7.7-1.68,15.21-6.66,21.84-2.42,3.23-5.63,6.22-8.95,8.88-3.31,2.66-6.73,5.01-9.55,6.95-2.26,1.56-3.96,2.75-5.09,3.62-.54-.02-.97-.06-1.3-.1-.44-.06-.71-.12-.84-.17Z"/>
      <path class="st0" d="M239.21,549.1l-5.3-7.52c-.09-.12-.17-.26-.21-.39.12-.88.78-1.62,1.65-1.85l.44.82c.98,1.77,1.96,3.53,2.97,5.24.16,1.23.32,2.46.45,3.71Z"/>
      <path class="st1" d="M238.19,541.22c.19,1.38.38,2.78.56,4.18-1.01-1.71-1.99-3.47-2.97-5.24l-.44-.82c.09-.04.18-.06.28-.07,1.24-.17,2.39.7,2.56,1.94Z"/>
      <path class="st0" d="M237.85,362.08l-.24,5.21v.19s.03.83.03.83c-2.64,2.46-5.01,5.06-7.08,7.81-2.36,3.13-4.37,6.45-6.12,9.91-1.83,3.6-3.38,7.32-4.81,11.12-1.42,3.8-2.7,7.68-4,11.57-1.25,3.76-2.51,7.55-3.89,11.27-1.39,3.71-2.91,7.35-4.67,10.83-4.47,8.79-10.52,16.47-17.29,23.54-5.54,5.78-11.56,11.16-17.61,16.41-1.29-.25-2.57-.51-3.87-.77-.61-.12-1.2,0-1.67.32h0c-.58,0-1.1.21-1.51.56h0c14.95-12.91,29.46-25.47,37.92-42.12,1.67-3.3,3.12-6.77,4.46-10.36,1.34-3.6,2.58-7.32,3.84-11.11,1.28-3.86,2.59-7.81,4.07-11.73,1.46-3.92,3.08-7.82,5-11.58,1.86-3.66,4-7.22,6.55-10.59,3.08-4.09,6.75-7.87,10.93-11.29Z"/>
      <path class="st0" d="M234.74,538.23c.2.37.4.75.61,1.11-.87.23-1.53.97-1.65,1.85-.43-.98-.13-2.15.77-2.79.09-.07.18-.12.28-.17Z"/>
      <path class="st1" d="M213.8,482.94c-.26.36-.54.71-.81,1.07l.28-2.3c.17.41.36.81.53,1.23Z"/>
      <path class="st0" d="M208.31,601.28c.33.03.76.08,1.3.1-.87.68-1.4,1.17-1.6,1.49.03-.08.09-.26.1-.5s-.05-.52-.24-.82c-.14-.25-.32-.37-.39-.44.13.05.4.12.84.17Z"/>
      <path class="st0" d="M168.29,469.99c1.3.26,2.58.52,3.87.77-1.37,1.19-2.73,2.37-4.1,3.55-.1.09-.2.16-.31.23-.12-.02-.24-.05-.36-.07-1.23-.25-2.03-1.45-1.78-2.68.04-.21.11-.4.21-.58l3.04,1.41c.02-1.25-.98-2.27-2.24-2.3.47-.31,1.07-.44,1.67-.32Z"/>
      <path class="st0" d="M168.85,472.61l-3.04-1.41c.17-.37.46-.67.8-.89,1.26.03,2.26,1.05,2.24,2.3Z"/>
      <path class="st0" d="M167.39,474.46c.12.02.24.05.36.07-.65.38-1.44.44-2.13.11-.82-.38-1.32-1.2-1.31-2.1,0-.63.28-1.19.69-1.59.03-.03.06-.06.1-.09l.72.33c-.1.18-.16.37-.21.58-.25,1.24.56,2.44,1.78,2.68Z"/>
      <path class="st0" d="M166.6,470.31h0c-.34.22-.63.52-.8.89l-.72-.33c.4-.35.93-.57,1.51-.56Z"/>
    </g>
  </g>
</svg>